999
dxfrw 0.6.3
  0
SECTION
  2
HEADER
  9
$ACADVER
  1
AC1021
  9
$DWGCODEPAGE
  3
ANSI_1252
  9
$INSBASE
 10
0
 20
0
 30
0
  9
$EXTMIN
 10
-1.694065894508601e-021
 20
0
 30
0
  9
$EXTMAX
 10
420.0000000000001
 20
297
 30
0
  9
$LIMMIN
 10
0
 20
0
  9
$LIMMAX
 10
420
 20
297
  9
$ORTHOMODE
 70
    0
  9
$REGENMODE
 70
    1
  9
$FILLMODE
 70
    1
  9
$QTEXTMODE
 70
    0
  9
$MIRRTEXT
 70
    0
  9
$LTSCALE
 40
1
  9
$ATTMODE
 70
    0
  9
$TEXTSIZE
 40
2.5
  9
$TRACEWID
 40
15.68
  9
$TEXTSTYLE
  7
STANDARD
  9
$CLAYER
  8
0
  9
$CELTYPE
  6
BYLAYER
  9
$CECOLOR
 62
  256
  9
$CELTSCALE
 40
1
  9
$DISPSILH
 70
    0
  9
$DIMSCALE
 40
1
  9
$DIMASZ
 40
2.5
  9
$DIMEXO
 40
0.625
  9
$DIMDLI
 40
3.75
  9
$DIMRND
 40
0
  9
$DIMDLE
 40
0
  9
$DIMEXE
 40
1.25
  9
$DIMTP
 40
0
  9
$DIMTM
 40
0
  9
$DIMTXT
 40
4
  9
$DIMCEN
 40
2.5
  9
$DIMTSZ
 40
0
  9
$DIMTOL
 70
    0
  9
$DIMLIM
 70
    0
  9
$DIMTIH
 70
    0
  9
$DIMTOH
 70
    0
  9
$DIMSE1
 70
    0
  9
$DIMSE2
 70
    0
  9
$DIMTAD
 70
    1
  9
$DIMZIN
 70
    1
  9
$DIMBLK
  1

  9
$DIMASO
 70
    1
  9
$DIMSHO
 70
    1
  9
$DIMPOST
  1

  9
$DIMAPOST
  1

  9
$DIMALT
 70
    0
  9
$DIMALTD
 70
    3
  9
$DIMALTF
 40
0.03937
  9
$DIMLFAC
 40
1
  9
$DIMTOFL
 70
    1
  9
$DIMTVP
 40
0
  9
$DIMTIX
 70
    0
  9
$DIMSOXD
 70
    0
  9
$DIMSAH
 70
    0
  9
$DIMBLK1
  1

  9
$DIMBLK2
  1

  9
$DIMSTYLE
  2
STANDARD
  9
$DIMCLRD
 70
    0
  9
$DIMCLRE
 70
    0
  9
$DIMCLRT
 70
    0
  9
$DIMTFAC
 40
1
  9
$DIMGAP
 40
0.625
  9
$DIMJUST
 70
    0
  9
$DIMSD1
 70
    0
  9
$DIMSD2
 70
    0
  9
$DIMTOLJ
 70
    0
  9
$DIMTZIN
 70
    8
  9
$DIMALTZ
 70
    0
  9
$DIMALTTZ
 70
    0
  9
$DIMUPT
 70
    0
  9
$DIMDEC
 70
    4
  9
$DIMTDEC
 70
    2
  9
$DIMALTU
 70
    2
  9
$DIMALTTD
 70
    3
  9
$DIMTXSTY
  7
standard
  9
$DIMAUNIT
 70
    0
  9
$DIMADEC
 70
    2
  9
$DIMALTRND
 40
0
  9
$DIMAZIN
 70
    0
  9
$DIMDSEP
 70
   44
  9
$DIMATFIT
 70
    3
  9
$DIMFRAC
 70
    0
  9
$DIMLDRBLK
  1
STANDARD
  9
$DIMLUNIT
 70
    2
  9
$DIMLWD
 70
   -2
  9
$DIMLWE
 70
   -2
  9
$DIMTMOVE
 70
    0
  9
$DIMFXL
 40
1
  9
$DIMFXLON
 70
    0
  9
$DIMJOGANG
 40
0.7854
  9
$DIMTFILL
 70
    0
  9
$DIMTFILLCLR
 70
    0
  9
$DIMARCSYM
 70
    0
  9
$DIMLTYPE
  6

  9
$DIMLTEX1
  6

  9
$DIMLTEX2
  6

  9
$LUNITS
 70
    2
  9
$LUPREC
 70
    0
  9
$SKETCHINC
 40
1
  9
$FILLETRAD
 40
0
  9
$AUNITS
 70
    0
  9
$AUPREC
 70
    2
  9
$MENU
  1
.
  9
$ELEVATION
 40
0
  9
$PELEVATION
 40
0
  9
$THICKNESS
 40
0
  9
$LIMCHECK
 70
    0
  9
$CHAMFERA
 40
0
  9
$CHAMFERB
 40
0
  9
$CHAMFERC
 40
0
  9
$CHAMFERD
 40
0
  9
$SKPOLY
 70
    0
  9
$USRTIMER
 70
    1
  9
$ANGBASE
 50
0
  9
$ANGDIR
 70
    0
  9
$PDMODE
 70
   34
  9
$PDSIZE
 40
0
  9
$PLINEWID
 40
0
  9
$SPLFRAME
 70
    0
  9
$SPLINETYPE
 70
    2
  9
$SPLINESEGS
 70
    8
  9
$HANDSEED
  5
20000
  9
$SURFTAB1
 70
    6
  9
$SURFTAB2
 70
    6
  9
$SURFTYPE
 70
    6
  9
$SURFU
 70
    6
  9
$SURFV
 70
    6
  9
$UCSBASE
  2

  9
$UCSNAME
  2

  9
$UCSORG
 10
0
 20
0
 30
0
  9
$UCSXDIR
 10
1
 20
0
 30
0
  9
$UCSYDIR
 10
0
 20
1
 30
0
  9
$UCSORTHOREF
  2

  9
$UCSORTHOVIEW
 70
    0
  9
$UCSORGTOP
 10
0
 20
0
 30
0
  9
$UCSORGBOTTOM
 10
0
 20
0
 30
0
  9
$UCSORGLEFT
 10
0
 20
0
 30
0
  9
$UCSORGRIGHT
 10
0
 20
0
 30
0
  9
$UCSORGFRONT
 10
0
 20
0
 30
0
  9
$UCSORGBACK
 10
0
 20
0
 30
0
  9
$PUCSBASE
  2

  9
$PUCSNAME
  2

  9
$PUCSORG
 10
0
 20
0
 30
0
  9
$PUCSXDIR
 10
1
 20
0
 30
0
  9
$PUCSYDIR
 10
0
 20
1
 30
0
  9
$PUCSORTHOREF
  2

  9
$PUCSORTHOVIEW
 70
    0
  9
$PUCSORGTOP
 10
0
 20
0
 30
0
  9
$PUCSORGBOTTOM
 10
0
 20
0
 30
0
  9
$PUCSORGLEFT
 10
0
 20
0
 30
0
  9
$PUCSORGRIGHT
 10
0
 20
0
 30
0
  9
$PUCSORGFRONT
 10
0
 20
0
 30
0
  9
$PUCSORGBACK
 10
0
 20
0
 30
0
  9
$USERI1
 70
    0
  9
$USERI2
 70
    0
  9
$USERI3
 70
    0
  9
$USERI4
 70
    0
  9
$USERI5
 70
    0
  9
$USERR1
 40
0
  9
$USERR2
 40
0
  9
$USERR3
 40
0
  9
$USERR4
 40
0
  9
$USERR5
 40
0
  9
$WORLDVIEW
 70
    1
  9
$SHADEDGE
 70
    3
  9
$SHADEDIF
 70
   70
  9
$TILEMODE
 70
    1
  9
$MAXACTVP
 70
   64
  9
$PINSBASE
 10
0
 20
0
 30
0
  9
$PLIMCHECK
 70
    0
  9
$PEXTMIN
 10
0
 20
0
 30
0
  9
$PEXTMAX
 10
0
 20
0
 30
0
  9
$GRIDMODE
 70
    1
  9
$SNAPSTYLE
 70
    0
  9
$GRIDUNIT
 10
0
 20
0
  9
$PLIMMIN
 10
0
 20
0
  9
$PLIMMAX
 10
210
 20
297
  9
$UNITMODE
 70
    0
  9
$VISRETAIN
 70
    1
  9
$PLINEGEN
 70
    0
  9
$PSLTSCALE
 70
    1
  9
$TREEDEPTH
 70
 3020
  9
$CMLSTYLE
  2
Standard
  9
$CMLJUST
 70
    0
  9
$CMLSCALE
 40
20
  9
$PROXYGRAPHICS
 70
    1
  9
$MEASUREMENT
 70
    1
  9
$CELWEIGHT
370
   -1
  9
$ENDCAPS
280
    0
  9
$JOINSTYLE
280
    0
  9
$LWDISPLAY
290
    0
  9
$INSUNITS
 70
    4
  9
$HYPERLINKBASE
  1

  9
$STYLESHEET
  1

  9
$XEDIT
290
    1
  9
$CEPSNTYPE
380
    0
  9
$PSTYLEMODE
290
    1
  9
$EXTNAMES
290
    1
  9
$PSVPSCALE
 40
0
  9
$OLESTARTUP
290
    0
  9
$SORTENTS
280
  127
  9
$INDEXCTL
280
    0
  9
$HIDETEXT
280
    1
  9
$XCLIPFRAME
290
    0
  9
$HALOGAP
280
    0
  9
$OBSCOLOR
 70
  257
  9
$OBSLTYPE
280
    0
  9
$INTERSECTIONDISPLAY
280
    0
  9
$INTERSECTIONCOLOR
 70
  257
  9
$DIMASSOC
280
    1
  9
$PROJECTNAME
  1

  9
$CAMERADISPLAY
290
    0
  9
$LENSLENGTH
 40
50
  9
$CAMERAHEIGHT
 40
0
  9
$STEPSPERSEC
 40
2
  9
$STEPSIZE
 40
50
  9
$3DDWFPREC
 40
2
  9
$PSOLWIDTH
 40
5
  9
$PSOLHEIGHT
 40
80
  9
$LOFTANG1
 40
1.570796326794897
  9
$LOFTANG2
 40
1.570796326794897
  9
$LOFTMAG1
 40
0
  9
$LOFTMAG2
 40
0
  9
$LOFTPARAM
 70
    7
  9
$LOFTNORMALS
280
    1
  9
$LATITUDE
 40
1
  9
$LONGITUDE
 40
1
  9
$NORTHDIRECTION
 40
0
  9
$TIMEZONE
 70
-8000
  9
$LIGHTGLYPHDISPLAY
280
    1
  9
$TILEMODELIGHTSYNCH
280
    1
  9
$SOLIDHIST
280
    1
  9
$SHOWHIST
280
    1
  9
$DWFFRAME
280
    2
  9
$DGNFRAME
280
    0
  9
$REALWORLDSCALE
290
    1
  9
$INTERFERECOLOR
 62
    1
  9
$CSHADOW
280
    0
  9
$SHADOWPLANELOCATION
 40
0
  0
ENDSEC
  0
SECTION
  2
CLASSES
  0
ENDSEC
  0
SECTION
  2
TABLES
  0
TABLE
  2
VPORT
  5
8
330
0
100
AcDbSymbolTable
 70
    1
  0
VPORT
  5
31
330
2
100
AcDbSymbolTableRecord
100
AcDbViewportTableRecord
  2
*ACTIVE
 70
    0
 10
0
 20
0
 11
1
 21
1
 12
164.5448920248177
 22
152.1431235814936
 13
0
 23
0
 14
10
 24
10
 15
10
 25
10
 16
0
 26
0
 36
1
 17
0
 27
0
 37
0
 40
368.0667705857968
 41
0.7677496991576414
 42
50
 43
0
 44
0
 50
0
 51
0
 71
    0
 72
  100
 73
    1
 74
    3
 75
    0
 76
    1
 77
    0
 78
    0
281
    0
 65
    1
110
0
120
0
130
0
111
1
121
0
131
0
112
0
122
1
132
0
 79
    0
146
0
348
10020
 60
    7
 61
    5
292
1
282
    1
141
0
142
0
 63
  250
421
3358443
  0
ENDTAB
  0
TABLE
  2
LTYPE
  5
5
330
0
100
AcDbSymbolTable
 70
    4
  0
LTYPE
  5
14
330
5
100
AcDbSymbolTableRecord
100
AcDbLinetypeTableRecord
  2
ByBlock
 70
    0
  3

 72
   65
 73
    0
 40
0
  0
LTYPE
  5
15
330
5
100
AcDbSymbolTableRecord
100
AcDbLinetypeTableRecord
  2
ByLayer
 70
    0
  3

 72
   65
 73
    0
 40
0
  0
LTYPE
  5
16
330
5
100
AcDbSymbolTableRecord
100
AcDbLinetypeTableRecord
  2
Continuous
 70
    0
  3
Solid line
 72
   65
 73
    0
 40
0
  0
LTYPE
  5
32
330
5
100
AcDbSymbolTableRecord
100
AcDbLinetypeTableRecord
  2
DOT
 70
    0
  3
Dot . . . . . . . . . . . . . . . . . . . . . .
 72
   65
 73
    2
 40
6.35
 49
0
 74
    0
 49
-6.35
 74
    0
  0
LTYPE
  5
33
330
5
100
AcDbSymbolTableRecord
100
AcDbLinetypeTableRecord
  2
DOTTINY
 70
    0
  3
Dot (.15x) .....................................
 72
   65
 73
    2
 40
0.9525
 49
0
 74
    0
 49
-0.9525
 74
    0
  0
LTYPE
  5
34
330
5
100
AcDbSymbolTableRecord
100
AcDbLinetypeTableRecord
  2
DOT2
 70
    0
  3
Dot (.5x) .....................................
 72
   65
 73
    2
 40
3.175
 49
0
 74
    0
 49
-3.175
 74
    0
  0
LTYPE
  5
35
330
5
100
AcDbSymbolTableRecord
100
AcDbLinetypeTableRecord
  2
DOTX2
 70
    0
  3
Dot (2x) .  .  .  .  .  .  .  .  .  .  .  .  .
 72
   65
 73
    2
 40
12.7
 49
0
 74
    0
 49
-12.7
 74
    0
  0
LTYPE
  5
36
330
5
100
AcDbSymbolTableRecord
100
AcDbLinetypeTableRecord
  2
DASHED
 70
    0
  3
Dashed _ _ _ _ _ _ _ _ _ _ _ _ _ _ _ _ _
 72
   65
 73
    2
 40
19.05
 49
12.7
 74
    0
 49
-6.35
 74
    0
  0
LTYPE
  5
37
330
5
100
AcDbSymbolTableRecord
100
AcDbLinetypeTableRecord
  2
DASHEDTINY
 70
    0
  3
Dashed (.15x) _ _ _ _ _ _ _ _ _ _ _ _ _ _ _ _ _
 72
   65
 73
    2
 40
2.8575
 49
1.905
 74
    0
 49
-0.9525
 74
    0
  0
LTYPE
  5
38
330
5
100
AcDbSymbolTableRecord
100
AcDbLinetypeTableRecord
  2
DASHED2
 70
    0
  3
Dashed (.5x) _ _ _ _ _ _ _ _ _ _ _ _ _ _ _ _ _
 72
   65
 73
    2
 40
9.524999999999999
 49
6.35
 74
    0
 49
-3.175
 74
    0
  0
LTYPE
  5
39
330
5
100
AcDbSymbolTableRecord
100
AcDbLinetypeTableRecord
  2
DASHEDX2
 70
    0
  3
Dashed (2x) ____  ____  ____  ____  ____  ___
 72
   65
 73
    2
 40
38.09999999999999
 49
25.4
 74
    0
 49
-12.7
 74
    0
  0
LTYPE
  5
3A
330
5
100
AcDbSymbolTableRecord
100
AcDbLinetypeTableRecord
  2
DASHDOT
 70
    0
  3
Dash dot __ . __ . __ . __ . __ . __ . __ . __
 72
   65
 73
    4
 40
25.4
 49
12.7
 74
    0
 49
-6.35
 74
    0
 49
0
 74
    0
 49
-6.35
 74
    0
  0
LTYPE
  5
3B
330
5
100
AcDbSymbolTableRecord
100
AcDbLinetypeTableRecord
  2
DASHDOTTINY
 70
    0
  3
Dash dot (.15x) _._._._._._._._._._._._._._._.
 72
   65
 73
    4
 40
3.81
 49
1.905
 74
    0
 49
-0.9525
 74
    0
 49
0
 74
    0
 49
-0.9525
 74
    0
  0
LTYPE
  5
3C
330
5
100
AcDbSymbolTableRecord
100
AcDbLinetypeTableRecord
  2
DASHDOT2
 70
    0
  3
Dash dot (.5x) _._._._._._._._._._._._._._._.
 72
   65
 73
    4
 40
12.7
 49
6.35
 74
    0
 49
-3.175
 74
    0
 49
0
 74
    0
 49
-3.175
 74
    0
  0
LTYPE
  5
3D
330
5
100
AcDbSymbolTableRecord
100
AcDbLinetypeTableRecord
  2
DASHDOTX2
 70
    0
  3
Dash dot (2x) ____  .  ____  .  ____  .  ___
 72
   65
 73
    4
 40
50.8
 49
25.4
 74
    0
 49
-12.7
 74
    0
 49
0
 74
    0
 49
-12.7
 74
    0
  0
LTYPE
  5
3E
330
5
100
AcDbSymbolTableRecord
100
AcDbLinetypeTableRecord
  2
DIVIDE
 70
    0
  3
Divide ____ . . ____ . . ____ . . ____ . . ____
 72
   65
 73
    6
 40
31.75
 49
12.7
 74
    0
 49
-6.35
 74
    0
 49
0
 74
    0
 49
-6.35
 74
    0
 49
0
 74
    0
 49
-6.35
 74
    0
  0
LTYPE
  5
3F
330
5
100
AcDbSymbolTableRecord
100
AcDbLinetypeTableRecord
  2
DIVIDETINY
 70
    0
  3
Divide (.15x) __..__..__..__..__..__..__..__.._
 72
   65
 73
    6
 40
4.7625
 49
1.905
 74
    0
 49
-0.9525
 74
    0
 49
0
 74
    0
 49
-0.9525
 74
    0
 49
0
 74
    0
 49
-0.9525
 74
    0
  0
LTYPE
  5
40
330
5
100
AcDbSymbolTableRecord
100
AcDbLinetypeTableRecord
  2
DIVIDE2
 70
    0
  3
Divide (.5x) __..__..__..__..__..__..__..__.._
 72
   65
 73
    6
 40
15.875
 49
6.35
 74
    0
 49
-3.175
 74
    0
 49
0
 74
    0
 49
-3.175
 74
    0
 49
0
 74
    0
 49
-3.175
 74
    0
  0
LTYPE
  5
41
330
5
100
AcDbSymbolTableRecord
100
AcDbLinetypeTableRecord
  2
DIVIDEX2
 70
    0
  3
Divide (2x) ________  .  .  ________  .  .  _
 72
   65
 73
    6
 40
63.5
 49
25.4
 74
    0
 49
-12.7
 74
    0
 49
0
 74
    0
 49
-12.7
 74
    0
 49
0
 74
    0
 49
-12.7
 74
    0
  0
LTYPE
  5
42
330
5
100
AcDbSymbolTableRecord
100
AcDbLinetypeTableRecord
  2
BORDER
 70
    0
  3
Border __ __ . __ __ . __ __ . __ __ . __ __ .
 72
   65
 73
    6
 40
44.45
 49
12.7
 74
    0
 49
-6.35
 74
    0
 49
12.7
 74
    0
 49
-6.35
 74
    0
 49
0
 74
    0
 49
-6.35
 74
    0
  0
LTYPE
  5
43
330
5
100
AcDbSymbolTableRecord
100
AcDbLinetypeTableRecord
  2
BORDERTINY
 70
    0
  3
Border (.15x) __.__.__.__.__.__.__.__.__.__.__.
 72
   65
 73
    6
 40
6.6675
 49
1.905
 74
    0
 49
-0.9525
 74
    0
 49
1.905
 74
    0
 49
-0.9525
 74
    0
 49
0
 74
    0
 49
-0.9525
 74
    0
  0
LTYPE
  5
44
330
5
100
AcDbSymbolTableRecord
100
AcDbLinetypeTableRecord
  2
BORDER2
 70
    0
  3
Border (.5x) __.__.__.__.__.__.__.__.__.__.__.
 72
   65
 73
    6
 40
22.225
 49
6.35
 74
    0
 49
-3.175
 74
    0
 49
6.35
 74
    0
 49
-3.175
 74
    0
 49
0
 74
    0
 49
-3.175
 74
    0
  0
LTYPE
  5
45
330
5
100
AcDbSymbolTableRecord
100
AcDbLinetypeTableRecord
  2
BORDERX2
 70
    0
  3
Border (2x) ____  ____  .  ____  ____  .  ___
 72
   65
 73
    6
 40
88.89999999999999
 49
25.4
 74
    0
 49
-12.7
 74
    0
 49
25.4
 74
    0
 49
-12.7
 74
    0
 49
0
 74
    0
 49
-12.7
 74
    0
  0
LTYPE
  5
46
330
5
100
AcDbSymbolTableRecord
100
AcDbLinetypeTableRecord
  2
CENTER
 70
    0
  3
Center ____ _ ____ _ ____ _ ____ _ ____ _ ____
 72
   65
 73
    4
 40
50.8
 49
31.75
 74
    0
 49
-6.35
 74
    0
 49
6.35
 74
    0
 49
-6.35
 74
    0
  0
LTYPE
  5
47
330
5
100
AcDbSymbolTableRecord
100
AcDbLinetypeTableRecord
  2
CENTERTINY
 70
    0
  3
Center (.15x) ___ _ ___ _ ___ _ ___ _ ___ _ ___
 72
   65
 73
    4
 40
7.62
 49
4.7625
 74
    0
 49
-0.9525
 74
    0
 49
0.9525
 74
    0
 49
-0.9525
 74
    0
  0
LTYPE
  5
48
330
5
100
AcDbSymbolTableRecord
100
AcDbLinetypeTableRecord
  2
CENTER2
 70
    0
  3
Center (.5x) ___ _ ___ _ ___ _ ___ _ ___ _ ___
 72
   65
 73
    4
 40
28.575
 49
19.05
 74
    0
 49
-3.175
 74
    0
 49
3.175
 74
    0
 49
-3.175
 74
    0
  0
LTYPE
  5
49
330
5
100
AcDbSymbolTableRecord
100
AcDbLinetypeTableRecord
  2
CENTERX2
 70
    0
  3
Center (2x) ________  __  ________  __  _____
 72
   65
 73
    4
 40
101.6
 49
63.5
 74
    0
 49
-12.7
 74
    0
 49
12.7
 74
    0
 49
-12.7
 74
    0
  0
ENDTAB
  0
TABLE
  2
LAYER
  5
2
330
0
100
AcDbSymbolTable
 70
    1
  0
LAYER
  5
10
330
2
100
AcDbSymbolTableRecord
100
AcDbLayerTableRecord
  2
0
 70
    0
 62
    7
  6
CONTINUOUS
370
    0
390
F
  0
LAYER
  5
4A
330
2
100
AcDbSymbolTableRecord
100
AcDbLayerTableRecord
  2
dash
 70
    0
 62
    7
  6
DASHED2
370
    0
390
F
  0
ENDTAB
  0
TABLE
  2
STYLE
  5
3
330
0
100
AcDbSymbolTable
 70
    3
  0
STYLE
  5
4B
330
2
100
AcDbSymbolTableRecord
100
AcDbTextStyleTableRecord
  2
cyrillic_ii
 70
    0
 40
0
 41
1
 50
0
 71
    0
 42
1
  3
cyrillic_ii
  4

  0
STYLE
  5
4C
330
2
100
AcDbSymbolTableRecord
100
AcDbTextStyleTableRecord
  2
Standard
 70
    0
 40
0
 41
1
 50
0
 71
    0
 42
1
  3
txt
  4

  0
ENDTAB
  0
TABLE
  2
VIEW
  5
6
330
0
100
AcDbSymbolTable
 70
    0
  0
ENDTAB
  0
TABLE
  2
UCS
  5
7
330
0
100
AcDbSymbolTable
 70
    0
  0
ENDTAB
  0
TABLE
  2
APPID
  5
9
330
0
100
AcDbSymbolTable
 70
    1
  0
APPID
  5
12
330
9
100
AcDbSymbolTableRecord
100
AcDbRegAppTableRecord
  2
ACAD
 70
    0
  0
APPID
  5
4D
330
9
100
AcDbSymbolTableRecord
100
AcDbRegAppTableRecord
  2
LibreCad
 70
    0
  0
ENDTAB
  0
TABLE
  2
DIMSTYLE
  5
A
330
0
100
AcDbSymbolTable
 70
    1
100
AcDbDimStyleTable
 71
    1
  0
DIMSTYLE
105
4E
330
A
100
AcDbSymbolTableRecord
100
AcDbDimStyleTableRecord
  2
Standard
 70
    0
 40
1
 41
2.5
 42
0.625
 43
0.38
 44
1.25
 45
0
 46
0
 47
0
 48
0
 49
1
140
4
141
0.09
142
0
143
25.4
144
1
145
0
146
1
147
0.625
148
0
 71
    0
 72
    0
 73
    0
 74
    1
 75
    0
 76
    0
 77
    0
 78
    1
 79
    0
170
    0
171
    2
172
    0
173
    0
174
    0
175
    0
176
    0
177
    0
178
    0
179
    2
271
    4
272
    4
273
    2
274
    2
275
    0
276
    0
277
    2
278
   44
279
    0
280
    0
281
    0
282
    0
283
    1
284
    0
285
    0
286
    0
288
    0
289
    3
340
standard
341

371
   -2
372
   -2
  0
ENDTAB
  0
TABLE
  2
BLOCK_RECORD
  5
1
330
0
100
AcDbSymbolTable
 70
    2
  0
BLOCK_RECORD
  5
1F
330
1
100
AcDbSymbolTableRecord
100
AcDbBlockTableRecord
  2
*Model_Space
 70
    0
280
    1
281
    0
  0
BLOCK_RECORD
  5
1E
330
1
100
AcDbSymbolTableRecord
100
AcDbBlockTableRecord
  2
*Paper_Space
 70
    0
280
    1
281
    0
  0
BLOCK_RECORD
  5
4F
330
1
100
AcDbSymbolTableRecord
100
AcDbBlockTableRecord
  2
*D1
 70
    0
280
    1
281
    0
  0
BLOCK_RECORD
  5
52
330
1
100
AcDbSymbolTableRecord
100
AcDbBlockTableRecord
  2
*D5
 70
    0
280
    1
281
    0
  0
BLOCK_RECORD
  5
55
330
1
100
AcDbSymbolTableRecord
100
AcDbBlockTableRecord
  2
*D6
 70
    0
280
    1
281
    0
  0
BLOCK_RECORD
  5
58
330
1
100
AcDbSymbolTableRecord
100
AcDbBlockTableRecord
  2
*D3
 70
    0
280
    1
281
    0
  0
BLOCK_RECORD
  5
5B
330
1
100
AcDbSymbolTableRecord
100
AcDbBlockTableRecord
  2
*D7
 70
    0
280
    1
281
    0
  0
BLOCK_RECORD
  5
5E
330
1
100
AcDbSymbolTableRecord
100
AcDbBlockTableRecord
  2
*D4
 70
    0
280
    1
281
    0
  0
BLOCK_RECORD
  5
61
330
1
100
AcDbSymbolTableRecord
100
AcDbBlockTableRecord
  2
*D2
 70
    0
280
    1
281
    0
  0
ENDTAB
  0
ENDSEC
  0
SECTION
  2
BLOCKS
  0
BLOCK
  5
20
330
1F
100
AcDbEntity
  8
0
100
AcDbBlockBegin
  2
*Model_Space
 70
    0
 10
0
 20
0
 30
0
  3
*Model_Space
  1

  0
ENDBLK
  5
21
330
1F
100
AcDbEntity
  8
0
100
AcDbBlockEnd
  0
BLOCK
  5
1C
330
1B
100
AcDbEntity
  8
0
100
AcDbBlockBegin
  2
*Paper_Space
 70
    0
 10
0
 20
0
 30
0
  3
*Paper_Space
  1

  0
ENDBLK
  5
1D
330
1F
100
AcDbEntity
  8
0
100
AcDbBlockEnd
  0
BLOCK
  5
50
330
4F
100
AcDbEntity
  8
0
100
AcDbBlockBegin
  2
*D1
 70
    1
 10
0
 20
0
  3
*D1
  1

  0
LINE
  5
64
100
AcDbEntity
  8
0
  6
ByBlock
 62
    0
370
   -2
100
AcDbLine
 10
52.37781275926935
 20
170.0632058960671
 11
52.37781275926935
 21
159.6684542765436
  0
LINE
  5
65
100
AcDbEntity
  8
0
  6
ByBlock
 62
    0
370
   -2
100
AcDbLine
 10
152.3778127592693
 20
170.0632058960671
 11
152.3778127592693
 21
159.6684542765436
  0
LINE
  5
66
100
AcDbEntity
  8
0
  6
ByBlock
 62
    0
370
   -2
100
AcDbLine
 10
52.37781275926935
 20
160.9184542765436
 11
152.3778127592693
 21
160.9184542765436
  0
SOLID
  5
67
100
AcDbEntity
  8
0
  6
ByBlock
 62
    0
370
   -2
100
AcDbTrace
 10
52.37781275926935
 20
160.9184542765436
 30
0
 11
54.87781275926935
 21
161.3347389343164
 31
0
 12
54.87781275926935
 22
160.5021696187708
 32
0
 13
54.87781275926935
 23
160.5021696187708
 33
0
  0
SOLID
  5
68
100
AcDbEntity
  8
0
  6
ByBlock
 62
    0
370
   -2
100
AcDbTrace
 10
152.3778127592693
 20
160.9184542765436
 30
0
 11
149.8778127592693
 21
160.5021696187708
 31
0
 12
149.8778127592693
 22
161.3347389343164
 32
0
 13
149.8778127592693
 23
161.3347389343164
 33
0
  0
MTEXT
  5
69
100
AcDbEntity
  8
0
  6
CONTINUOUS
 62
    0
370
   -2
100
AcDbMText
 10
102.3778127592693
 20
163.5434542765436
 30
0
 40
4
 41
7.111111111111111
 71
    5
 72
    1
  1
100
  7
standard
210
0
220
0
230
1
 50
0
 73
    2
 44
1
  0
ENDBLK
  5
51
330
4F
100
AcDbEntity
  8
0
100
AcDbBlockEnd
  0
BLOCK
  5
53
330
52
100
AcDbEntity
  8
0
100
AcDbBlockBegin
  2
*D5
 70
    1
 10
0
 20
0
  3
*D5
  1

  0
LINE
  5
6A
100
AcDbEntity
  8
0
  6
ByBlock
 62
    0
370
   -2
100
AcDbLine
 10
282.1475643787929
 20
260.6882058960671
 11
282.1475643787929
 21
170.6882058960671
  0
SOLID
  5
6B
100
AcDbEntity
  8
0
  6
ByBlock
 62
    0
370
   -2
100
AcDbTrace
 10
282.1475643787929
 20
260.6882058960671
 30
0
 11
282.5638490365657
 21
258.1882058960671
 31
0
 12
281.73127972102
 22
258.1882058960671
 32
0
 13
281.73127972102
 23
258.1882058960671
 33
0
  0
SOLID
  5
6C
100
AcDbEntity
  8
0
  6
ByBlock
 62
    0
370
   -2
100
AcDbTrace
 10
282.1475643787929
 20
170.6882058960671
 30
0
 11
281.73127972102
 21
173.1882058960671
 31
0
 12
282.5638490365657
 22
173.1882058960671
 32
0
 13
282.5638490365657
 23
173.1882058960671
 33
0
  0
MTEXT
  5
6D
100
AcDbEntity
  8
0
  6
CONTINUOUS
 62
    0
370
   -2
100
AcDbMText
 10
279.5225643787929
 20
215.6882058960671
 30
0
 40
4
 41
4.888888888889136
 71
    5
 72
    1
  1
90
  7
standard
210
0
220
0
230
1
 50
90
 73
    2
 44
1
  0
LINE
  5
6E
100
AcDbEntity
  8
0
  6
ByBlock
 62
    0
370
   -2
100
AcDbLine
 10
258.0028127592693
 20
260.6882058960671
 11
283.3975643787929
 21
260.6882058960671
  0
LINE
  5
6F
100
AcDbEntity
  8
0
  6
ByBlock
 62
    0
370
   -2
100
AcDbLine
 10
273.0028127592693
 20
170.6882058960671
 11
283.3975643787929
 21
170.6882058960671
  0
ENDBLK
  5
54
330
52
100
AcDbEntity
  8
0
100
AcDbBlockEnd
  0
BLOCK
  5
56
330
55
100
AcDbEntity
  8
0
100
AcDbBlockBegin
  2
*D6
 70
    1
 10
0
 20
0
  3
*D6
  1

  0
LINE
  5
70
100
AcDbEntity
  8
0
  6
ByBlock
 62
    0
370
   -2
100
AcDbLine
 10
187.3778127592693
 20
270.6480717308914
 11
257.3778127592693
 21
270.6480717308914
  0
SOLID
  5
71
100
AcDbEntity
  8
0
  6
ByBlock
 62
    0
370
   -2
100
AcDbTrace
 10
187.3778127592693
 20
270.6480717308914
 30
0
 11
189.8778127592693
 21
271.0643563886642
 31
0
 12
189.8778127592693
 22
270.2317870731185
 32
0
 13
189.8778127592693
 23
270.2317870731185
 33
0
  0
SOLID
  5
72
100
AcDbEntity
  8
0
  6
ByBlock
 62
    0
370
   -2
100
AcDbTrace
 10
257.3778127592693
 20
270.6480717308914
 30
0
 11
254.8778127592693
 21
270.2317870731185
 31
0
 12
254.8778127592693
 22
271.0643563886642
 32
0
 13
254.8778127592693
 23
271.0643563886642
 33
0
  0
MTEXT
  5
73
100
AcDbEntity
  8
0
  6
CONTINUOUS
 62
    0
370
   -2
100
AcDbMText
 10
222.3778127592693
 20
273.2730717308914
 30
0
 40
4
 41
4.888888888888889
 71
    5
 72
    1
  1
70
  7
standard
210
0
220
0
230
1
 50
0
 73
    2
 44
1
  0
LINE
  5
74
100
AcDbEntity
  8
0
  6
ByBlock
 62
    0
370
   -2
100
AcDbLine
 10
187.3778127592693
 20
261.3132058960671
 11
187.3778127592693
 21
271.8980717308914
  0
LINE
  5
75
100
AcDbEntity
  8
0
  6
ByBlock
 62
    0
370
   -2
100
AcDbLine
 10
257.3778127592693
 20
261.3132058960671
 11
257.3778127592693
 21
271.8980717308914
  0
ENDBLK
  5
57
330
55
100
AcDbEntity
  8
0
100
AcDbBlockEnd
  0
BLOCK
  5
59
330
58
100
AcDbEntity
  8
0
100
AcDbBlockBegin
  2
*D3
 70
    1
 10
0
 20
0
  3
*D3
  1

  0
LINE
  5
76
100
AcDbEntity
  8
0
  6
ByBlock
 62
    0
370
   -2
100
AcDbLine
 10
162.3451387239235
 20
190.6882058960671
 11
162.3451387239235
 21
170.6882058960671
  0
SOLID
  5
77
100
AcDbEntity
  8
0
  6
ByBlock
 62
    0
370
   -2
100
AcDbTrace
 10
162.3451387239235
 20
190.6882058960671
 30
0
 11
162.7614233816963
 21
188.1882058960671
 31
0
 12
161.9288540661506
 22
188.1882058960671
 32
0
 13
161.9288540661506
 23
188.1882058960671
 33
0
  0
SOLID
  5
78
100
AcDbEntity
  8
0
  6
ByBlock
 62
    0
370
   -2
100
AcDbTrace
 10
162.3451387239235
 20
170.6882058960671
 30
0
 11
161.9288540661506
 21
173.1882058960671
 31
0
 12
162.7614233816963
 22
173.1882058960671
 32
0
 13
162.7614233816963
 23
173.1882058960671
 33
0
  0
MTEXT
  5
79
100
AcDbEntity
  8
0
  6
CONTINUOUS
 62
    0
370
   -2
100
AcDbMText
 10
159.7201387239235
 20
180.6882058960671
 30
0
 40
4
 41
4.888888888888889
 71
    5
 72
    1
  1
20
  7
standard
210
0
220
0
230
1
 50
90
 73
    2
 44
1
  0
LINE
  5
7A
100
AcDbEntity
  8
0
  6
ByBlock
 62
    0
370
   -2
100
AcDbLine
 10
153.0028127592693
 20
190.6882058960671
 11
163.5951387239235
 21
190.6882058960671
  0
LINE
  5
7B
100
AcDbEntity
  8
0
  6
ByBlock
 62
    0
370
   -2
100
AcDbLine
 10
153.0028127592693
 20
170.6882058960671
 11
163.5951387239235
 21
170.6882058960671
  0
ENDBLK
  5
5A
330
58
100
AcDbEntity
  8
0
100
AcDbBlockEnd
  0
BLOCK
  5
5C
330
5B
100
AcDbEntity
  8
0
100
AcDbBlockBegin
  2
*D7
 70
    1
 10
0
 20
0
  3
*D7
  1

  0
LINE
  5
7C
100
AcDbEntity
  8
0
  6
ByBlock
 62
    0
370
   -2
100
AcDbLine
 10
172.3778127592693
 20
160.6713871634691
 11
272.3778127592693
 21
160.6713871634691
  0
SOLID
  5
7D
100
AcDbEntity
  8
0
  6
ByBlock
 62
    0
370
   -2
100
AcDbTrace
 10
172.3778127592693
 20
160.6713871634691
 30
0
 11
174.8778127592693
 21
161.0876718212419
 31
0
 12
174.8778127592693
 22
160.2551025056962
 32
0
 13
174.8778127592693
 23
160.2551025056962
 33
0
  0
SOLID
  5
7E
100
AcDbEntity
  8
0
  6
ByBlock
 62
    0
370
   -2
100
AcDbTrace
 10
272.3778127592693
 20
160.6713871634691
 30
0
 11
269.8778127592693
 21
160.2551025056962
 31
0
 12
269.8778127592693
 22
161.0876718212419
 32
0
 13
269.8778127592693
 23
161.0876718212419
 33
0
  0
MTEXT
  5
7F
100
AcDbEntity
  8
0
  6
CONTINUOUS
 62
    0
370
   -2
100
AcDbMText
 10
222.3778127592693
 20
163.2963871634691
 30
0
 40
4
 41
7.111111111111111
 71
    5
 72
    1
  1
100
  7
standard
210
0
220
0
230
1
 50
0
 73
    2
 44
1
  0
LINE
  5
80
100
AcDbEntity
  8
0
  6
ByBlock
 62
    0
370
   -2
100
AcDbLine
 10
172.3778127592693
 20
170.0632058960671
 11
172.3778127592693
 21
159.4213871634691
  0
LINE
  5
81
100
AcDbEntity
  8
0
  6
ByBlock
 62
    0
370
   -2
100
AcDbLine
 10
272.3778127592693
 20
170.0632058960671
 11
272.3778127592693
 21
159.4213871634691
  0
ENDBLK
  5
5D
330
5B
100
AcDbEntity
  8
0
100
AcDbBlockEnd
  0
BLOCK
  5
5F
330
5E
100
AcDbEntity
  8
0
100
AcDbBlockBegin
  2
*D4
 70
    1
 10
0
 20
0
  3
*D4
  1

  0
LINE
  5
82
100
AcDbEntity
  8
0
  6
ByBlock
 62
    0
370
   -2
100
AcDbLine
 10
77.37781275926935
 20
50.06320589606713
 11
77.37781275926935
 21
39.37189439552532
  0
LINE
  5
83
100
AcDbEntity
  8
0
  6
ByBlock
 62
    0
370
   -2
100
AcDbLine
 10
127.3778127592693
 20
50.06320589606713
 11
127.3778127592693
 21
39.37189439552532
  0
LINE
  5
84
100
AcDbEntity
  8
0
  6
ByBlock
 62
    0
370
   -2
100
AcDbLine
 10
77.37781275926935
 20
40.62189439552532
 11
127.3778127592693
 21
40.62189439552532
  0
SOLID
  5
85
100
AcDbEntity
  8
0
  6
ByBlock
 62
    0
370
   -2
100
AcDbTrace
 10
77.37781275926935
 20
40.62189439552532
 30
0
 11
79.87781275926935
 21
41.03817905329816
 31
0
 12
79.87781275926935
 22
40.20560973775248
 32
0
 13
79.87781275926935
 23
40.20560973775248
 33
0
  0
SOLID
  5
86
100
AcDbEntity
  8
0
  6
ByBlock
 62
    0
370
   -2
100
AcDbTrace
 10
127.3778127592693
 20
40.62189439552532
 30
0
 11
124.8778127592693
 21
40.20560973775248
 31
0
 12
124.8778127592693
 22
41.03817905329816
 32
0
 13
124.8778127592693
 23
41.03817905329816
 33
0
  0
MTEXT
  5
87
100
AcDbEntity
  8
0
  6
CONTINUOUS
 62
    0
370
   -2
100
AcDbMText
 10
102.3778127592693
 20
43.24689439552532
 30
0
 40
4
 41
4.888888888889136
 71
    5
 72
    1
  1
50
  7
standard
210
0
220
0
230
1
 50
0
 73
    2
 44
1
  0
ENDBLK
  5
60
330
5E
100
AcDbEntity
  8
0
100
AcDbBlockEnd
  0
BLOCK
  5
62
330
61
100
AcDbEntity
  8
0
100
AcDbBlockBegin
  2
*D2
 70
    1
 10
0
 20
0
  3
*D2
  1

  0
LINE
  5
88
100
AcDbEntity
  8
0
  6
ByBlock
 62
    0
370
   -2
100
AcDbLine
 10
137.3778127592693
 20
270.6480717308914
 11
67.37781275926935
 21
270.6480717308914
  0
SOLID
  5
89
100
AcDbEntity
  8
0
  6
ByBlock
 62
    0
370
   -2
100
AcDbTrace
 10
137.3778127592693
 20
270.6480717308914
 30
0
 11
134.8778127592693
 21
270.2317870731185
 31
0
 12
134.8778127592693
 22
271.0643563886642
 32
0
 13
134.8778127592693
 23
271.0643563886642
 33
0
  0
SOLID
  5
8A
100
AcDbEntity
  8
0
  6
ByBlock
 62
    0
370
   -2
100
AcDbTrace
 10
67.37781275926935
 20
270.6480717308914
 30
0
 11
69.87781275926935
 21
271.0643563886642
 31
0
 12
69.87781275926935
 22
270.2317870731185
 32
0
 13
69.87781275926935
 23
270.2317870731185
 33
0
  0
MTEXT
  5
8B
100
AcDbEntity
  8
0
  6
CONTINUOUS
 62
    0
370
   -2
100
AcDbMText
 10
102.3778127592693
 20
273.2730717308914
 30
0
 40
4
 41
4.888888888888889
 71
    5
 72
    1
  1
70
  7
standard
210
0
220
0
230
1
 50
360
 73
    2
 44
1
  0
LINE
  5
8C
100
AcDbEntity
  8
0
  6
ByBlock
 62
    0
370
   -2
100
AcDbLine
 10
137.3778127592693
 20
261.3132058960671
 11
137.3778127592693
 21
271.8980717308914
  0
LINE
  5
8D
100
AcDbEntity
  8
0
  6
ByBlock
 62
    0
370
   -2
100
AcDbLine
 10
67.37781275926935
 20
261.3132058960671
 11
67.37781275926935
 21
271.8980717308914
  0
ENDBLK
  5
63
330
61
100
AcDbEntity
  8
0
100
AcDbBlockEnd
  0
ENDSEC
  0
SECTION
  2
ENTITIES
  0
LWPOLYLINE
  5
8E
100
AcDbEntity
  8
0
  6
ByLayer
 62
  256
370
   -1
100
AcDbPolyline
 90
    4
 70
    1
 43
0
 10
420.0000000000001
 20
0
 10
420.0000000000001
 20
297
 10
2.842170773633811e-014
 20
297
 10
-1.694065894508601e-021
 20
0
  0
LWPOLYLINE
  5
8F
100
AcDbEntity
  8
dash
  6
CONTINUOUS
 62
  256
370
   70
100
AcDbPolyline
 90
    4
 70
    1
 43
0
 10
414.9999998489689
 20
19.999999955867
 10
229.9999998489689
 20
19.999999955867
 10
229.9999998489689
 20
74.999999955867
 10
414.9999998489689
 20
74.999999955867
  0
LINE
  5
90
100
AcDbEntity
  8
0
  6
ByLayer
 62
  256
370
   -1
100
AcDbLine
 10
414.9999998489689
 20
74.999999955867
 11
414.9999998489689
 21
19.999999955867
  0
LINE
  5
91
100
AcDbEntity
  8
0
  6
ByLayer
 62
  256
370
   -1
100
AcDbLine
 10
414.9999998489689
 20
19.999999955867
 11
414.9999998489689
 21
74.999999955867
  0
LINE
  5
92
100
AcDbEntity
  8
0
  6
ByLayer
 62
  256
370
   70
100
AcDbLine
 10
246.9999998489689
 20
19.99999995586699
 11
246.9999998489689
 21
74.999999955867
  0
LINE
  5
93
100
AcDbEntity
  8
0
  6
ByLayer
 62
  256
370
   70
100
AcDbLine
 10
269.9999998489689
 20
19.99999995586699
 11
269.9999998489689
 21
74.999999955867
  0
LINE
  5
94
100
AcDbEntity
  8
0
  6
ByLayer
 62
  256
370
   70
100
AcDbLine
 10
284.9999998489689
 20
19.99999995586698
 11
284.9999998489689
 21
74.999999955867
  0
LINE
  5
95
100
AcDbEntity
  8
0
  6
ByLayer
 62
  256
370
   70
100
AcDbLine
 10
294.9999998489689
 20
19.99999995586698
 11
294.9999998489689
 21
74.999999955867
  0
LINE
  5
96
100
AcDbEntity
  8
0
  6
ByLayer
 62
  256
370
   70
100
AcDbLine
 10
229.9999998489689
 20
54.999999955867
 11
294.9999998489689
 21
54.999999955867
  0
LINE
  5
97
100
AcDbEntity
  8
0
  6
ByLayer
 62
  256
370
   70
100
AcDbLine
 10
229.9999998489689
 20
49.999999955867
 11
294.9999998489689
 21
49.999999955867
  0
LINE
  5
98
100
AcDbEntity
  8
0
  6
ByLayer
 62
  256
370
   70
100
AcDbLine
 10
236.9999998489689
 20
49.999999955867
 11
236.9999998489689
 21
74.999999955867
  0
LINE
  5
99
100
AcDbEntity
  8
0
  6
ByLayer
 62
  256
370
   70
100
AcDbLine
 10
364.9999998489689
 20
54.999999955867
 11
414.9999998489689
 21
54.999999955867
  0
LINE
  5
9A
100
AcDbEntity
  8
0
  6
ByLayer
 62
  256
370
   70
100
AcDbLine
 10
364.9999998489689
 20
39.999999955867
 11
414.9999998489689
 21
39.999999955867
  0
LINE
  5
9B
100
AcDbEntity
  8
0
  6
ByLayer
 62
  256
370
   70
100
AcDbLine
 10
384.9999998489689
 20
34.999999955867
 11
384.9999998489689
 21
39.999999955867
  0
LINE
  5
9C
100
AcDbEntity
  8
0
  6
ByLayer
 62
  256
370
   70
100
AcDbLine
 10
379.9999998489689
 20
39.999999955867
 11
379.9999998489689
 21
59.999999955867
  0
LINE
  5
9D
100
AcDbEntity
  8
0
  6
ByLayer
 62
  256
370
   70
100
AcDbLine
 10
396.999999848969
 20
39.999999955867
 11
396.999999848969
 21
59.999999955867
  0
LINE
  5
9E
100
AcDbEntity
  8
0
  6
ByLayer
 62
  256
370
   70
100
AcDbLine
 10
294.9999998489689
 20
59.999999955867
 11
414.999999848969
 21
59.999999955867
  0
LINE
  5
9F
100
AcDbEntity
  8
0
  6
ByLayer
 62
  256
370
   70
100
AcDbLine
 10
294.9999998489689
 20
34.999999955867
 11
414.999999848969
 21
34.999999955867
  0
LINE
  5
A0
100
AcDbEntity
  8
dash
  6
CONTINUOUS
 62
  256
370
   25
100
AcDbLine
 10
229.9999998489689
 20
69.999999955867
 11
294.9999998489689
 21
69.999999955867
  0
LINE
  5
A1
100
AcDbEntity
  8
dash
  6
CONTINUOUS
 62
  256
370
   25
100
AcDbLine
 10
229.9999998489689
 20
64.999999955867
 11
294.9999998489689
 21
64.999999955867
  0
LINE
  5
A2
100
AcDbEntity
  8
0
  6
ByLayer
 62
  256
370
   25
100
AcDbLine
 10
229.9999998489689
 20
44.999999955867
 11
294.9999998489689
 21
44.999999955867
  0
LINE
  5
A3
100
AcDbEntity
  8
0
  6
ByLayer
 62
  256
370
   25
100
AcDbLine
 10
229.9999998489689
 20
39.999999955867
 11
294.9999998489689
 21
39.999999955867
  0
LINE
  5
A4
100
AcDbEntity
  8
0
  6
ByLayer
 62
  256
370
   25
100
AcDbLine
 10
229.9999998489689
 20
29.999999955867
 11
294.9999998489689
 21
29.999999955867
  0
LINE
  5
A5
100
AcDbEntity
  8
0
  6
ByLayer
 62
  256
370
   25
100
AcDbLine
 10
229.9999998489689
 20
24.999999955867
 11
294.9999998489689
 21
24.999999955867
  0
LINE
  5
A6
100
AcDbEntity
  8
0
  6
ByLayer
 62
  256
370
   25
100
AcDbLine
 10
229.9999998489689
 20
59.999999955867
 11
294.9999998489689
 21
59.999999955867
  0
LINE
  5
A7
100
AcDbEntity
  8
0
  6
ByLayer
 62
  256
370
   25
100
AcDbLine
 10
229.9999998489689
 20
34.999999955867
 11
294.9999998489689
 21
34.999999955867
  0
LINE
  5
A8
100
AcDbEntity
  8
0
  6
ByLayer
 62
  256
370
   70
100
AcDbLine
 10
364.9999998489689
 20
19.99999995586696
 11
364.9999998489689
 21
59.999999955867
  0
MTEXT
  5
A9
100
AcDbEntity
  8
0
  6
ByLayer
 62
  256
370
   -1
100
AcDbMText
 10
372.5948843444916
 20
55.92080044402861
 30
0
 40
2
 41
8.777777777777871
 71
    5
 72
    1
  1
Лiтера\P
  7
cyrillic_ii
210
0
220
0
230
1
 50
0
 73
    2
 44
1
  0
MTEXT
  5
AA
100
AcDbEntity
  8
0
  6
ByLayer
 62
  256
370
   -1
100
AcDbMText
 10
388.484319218499
 20
55.92080044402861
 30
0
 40
2
 41
6.444444444444444
 71
    5
 72
    1
  1
Маса\P
  7
cyrillic_ii
210
0
220
0
230
1
 50
0
 73
    2
 44
1
  0
MTEXT
  5
AB
100
AcDbEntity
  8
0
  6
ByLayer
 62
  256
370
   -1
100
AcDbMText
 10
406.1150620239046
 20
57.44444488400194
 30
0
 40
2
 41
12.00000000000009
 71
    5
 72
    1
  1
Масштаб
  7
cyrillic_ii
210
0
220
0
230
1
 50
0
 73
    2
 44
1
  0
MTEXT
  5
AC
100
AcDbEntity
  8
0
  6
ByLayer
 62
  256
370
   -1
100
AcDbMText
 10
398.7145033154628
 20
37.63706716434876
 30
0
 40
2
 41
15.88888888888889
 71
    5
 72
    1
  1
Аркушiв - 1
  7
cyrillic_ii
210
0
220
0
230
1
 50
0
 73
    2
 44
1
  0
MTEXT
  5
AD
100
AcDbEntity
  8
0
  6
ByLayer
 62
  256
370
   -1
100
AcDbMText
 10
241.9967894896355
 20
52.65584807265721
 30
0
 40
2
 41
4.444444444444445
 71
    5
 72
    1
  1
Арк
  7
cyrillic_ii
210
0
220
0
230
1
 50
0
 73
    2
 44
1
  0
MTEXT
  5
AE
100
AcDbEntity
  8
0
  6
ByLayer
 62
  256
370
   -1
100
AcDbMText
 10
233.403434848186
 20
52.33370610534859
 30
0
 40
2
 41
3.508666666666667
 71
    5
 72
    1
  1
Зм.
  7
cyrillic_ii
210
0
220
0
230
1
 50
0
 73
    2
 44
1
  0
MTEXT
  5
AF
100
AcDbEntity
  8
0
  6
ByLayer
 62
  256
370
   -1
100
AcDbMText
 10
258.7568783293421
 20
52.61231537437229
 30
0
 40
2
 41
13.5
 71
    5
 72
    1
  1
No. докум.
  7
cyrillic_ii
210
0
220
0
230
1
 50
0
 73
    2
 44
1
  0
MTEXT
  5
B0
100
AcDbEntity
  8
0
  6
ByLayer
 62
  256
370
   -1
100
AcDbMText
 10
277.980917891977
 20
52.47301073986043
 30
0
 40
2
 41
7.777777777777871
 71
    5
 72
    1
  1
Пiдпис
  7
cyrillic_ii
210
0
220
0
230
1
 50
0
 73
    2
 44
1
  0
MTEXT
  5
B1
100
AcDbEntity
  8
0
  6
ByLayer
 62
  256
370
   -1
100
AcDbMText
 10
290.2397257290194
 20
52.61231537437229
 30
0
 40
2
 41
7.111111111111203
 71
    5
 72
    1
  1
Дата
  7
cyrillic_ii
210
0
220
0
230
1
 50
0
 73
    2
 44
1
  0
MTEXT
  5
B2
100
AcDbEntity
  8
0
  6
ByLayer
 62
  256
370
   -1
100
AcDbMText
 10
256.6673088116644
 20
42.44307705500749
 30
0
 40
2
 41
15.22222222222222
 71
    5
 72
    1
  1
Кухарський
  7
cyrillic_ii
210
0
220
0
230
1
 50
0
 73
    2
 44
1
  0
MTEXT
  5
B3
100
AcDbEntity
  8
0
  6
ByLayer
 62
  256
370
   -1
100
AcDbMText
 10
372.4986457921644
 20
47.47222318564415
 30
0
 40
4
 41
2.222222222222222
 71
    5
 72
    1
  1
Н
  7
cyrillic_ii
210
0
220
0
230
1
 50
0
 73
    2
 44
1
  0
MTEXT
  5
B4
100
AcDbEntity
  8
0
  6
ByLayer
 62
  256
370
   -1
100
AcDbMText
 10
390.6610398815293
 20
27.38351457164974
 30
0
 40
3
 41
45.41666666666666
 71
    5
 72
    1
  1
ЛНУ iм. Iвана Франка
  7
cyrillic_ii
210
0
220
0
230
1
 50
0
 73
    2
 44
1
  0
MTEXT
  5
B5
100
AcDbEntity
  8
0
  6
ByLayer
 62
  256
370
   -1
100
AcDbMText
 10
353.7384330001342
 20
67.35898439583272
 30
0
 40
5
 41
97.50000000000075
 71
    5
 72
    1
  1
ЛАБОРАТОРНА РОБОТА No4
  7
cyrillic_ii
210
0
220
0
230
1
 50
0
 73
    2
 44
1
  0
MTEXT
  5
B6
100
AcDbEntity
  8
0
  6
ByLayer
 62
  256
370
   -1
100
AcDbMText
 10
237.4737581774694
 20
47.25156631862528
 30
0
 40
2
 41
12
 71
    5
 72
    1
  1
Розробив
  7
cyrillic_ii
210
0
220
0
230
1
 50
0
 73
    2
 44
1
  0
MTEXT
  5
B7
100
AcDbEntity
  8
0
  6
ByLayer
 62
  256
370
   -1
100
AcDbMText
 10
237.6728415247685
 20
42.0753992888491
 30
0
 40
2
 41
12.66666666666666
 71
    5
 72
    1
  1
Перевiрив
  7
cyrillic_ii
210
0
220
0
230
1
 50
0
 73
    2
 44
1
  0
MTEXT
  5
B8
100
AcDbEntity
  8
0
  6
ByLayer
 62
  256
370
   -1
100
AcDbMText
 10
329.1015625000017
 20
27.34375000000014
 30
0
 40
4
 41
31.88888888888908
 71
    5
 72
    1
  1
Варіант 24
  7
cyrillic_ii
210
0
220
0
230
1
 50
0
 73
    2
 44
1
  0
MTEXT
  5
B9
100
AcDbEntity
  8
0
  6
ByLayer
 62
  256
370
   -1
100
AcDbMText
 10
254.482812651034
 20
45.5301562941335
 30
0
 40
2
 41
10.88888888888898
 71
    5
 72
    1
  1
Кобетяк\P
  7
cyrillic_ii
210
0
220
0
230
1
 50
0
 73
    2
 44
1
  0
MTEXT
  5
BA
100
AcDbEntity
  8
0
  6
ByLayer
 62
  256
370
   -1
100
AcDbMText
 10
329.0872766400021
 20
48.1944283200003
 30
0
 40
4
 41
19.77777777777796
 71
    5
 72
    1
  1
Деталь
  7
cyrillic_ii
210
0
220
0
230
1
 50
0
 73
    2
 44
1
  0
DIMENSION
  5
BB
100
AcDbEntity
  8
0
  6
ByLayer
 62
  256
370
   -1
100
AcDbDimension
  2
*D1
 10
152.3778127592693
 20
160.9184542765436
 30
0
 11
102.3778127592693
 21
163.5434542765436
 31
0
 70
   33
  1
100
 71
    5
 72
    0
  3
Standard
 53
0
210
0
220
0
230
1
100
AcDbAlignedDimension
 13
52.37781275926935
 23
170.6882058960671
 33
0
 14
152.3778127592693
 24
170.6882058960671
 34
0
  0
DIMENSION
  5
BC
100
AcDbEntity
  8
0
  6
ByLayer
 62
  256
370
   -1
100
AcDbDimension
  2
*D2
 10
67.37781275926935
 20
270.6480717308914
 30
0
 11
102.3778127592693
 21
273.2730717308914
 31
0
 70
   32
  1
70
 71
    5
 72
    0
  3
Standard
 53
0
210
0
220
0
230
1
100
AcDbAlignedDimension
 13
137.3778127592693
 23
260.6882058960671
 33
0
 14
67.37781275926935
 24
260.6882058960671
 34
0
100
AcDbRotatedDimension
  0
DIMENSION
  5
BD
100
AcDbEntity
  8
0
  6
ByLayer
 62
  256
370
   -1
100
AcDbDimension
  2
*D3
 10
162.3451387239235
 20
170.6882058960671
 30
0
 11
159.7201387239235
 21
180.6882058960671
 31
0
 70
   32
  1
20
 71
    5
 72
    0
  3
Standard
 53
0
210
0
220
0
230
1
100
AcDbAlignedDimension
 13
152.3778127592693
 23
190.6882058960671
 33
0
 14
152.3778127592693
 24
170.6882058960671
 34
0
 50
90
100
AcDbRotatedDimension
  0
DIMENSION
  5
BE
100
AcDbEntity
  8
0
  6
ByLayer
 62
  256
370
   -1
100
AcDbDimension
  2
*D4
 10
127.3778127592693
 20
40.62189439552532
 30
0
 11
102.3778127592693
 21
43.24689439552532
 31
0
 70
   33
  1
50
 71
    5
 72
    0
  3
Standard
 53
0
210
0
220
0
230
1
100
AcDbAlignedDimension
 13
77.37781275926935
 23
50.68820589606713
 33
0
 14
127.3778127592693
 24
50.68820589606713
 34
0
  0
DIMENSION
  5
BF
100
AcDbEntity
  8
0
  6
ByLayer
 62
  256
370
   -1
100
AcDbDimension
  2
*D5
 10
282.1475643787929
 20
170.6882058960671
 30
0
 11
279.5225643787929
 21
215.6882058960671
 31
0
 70
   32
  1
90
 71
    5
 72
    0
  3
Standard
 53
0
210
0
220
0
230
1
100
AcDbAlignedDimension
 13
257.3778127592693
 23
260.6882058960671
 33
0
 14
272.3778127592693
 24
170.6882058960671
 34
0
 50
90
100
AcDbRotatedDimension
  0
DIMENSION
  5
C0
100
AcDbEntity
  8
0
  6
ByLayer
 62
  256
370
   -1
100
AcDbDimension
  2
*D6
 10
257.3778127592693
 20
270.6480717308914
 30
0
 11
222.3778127592693
 21
273.2730717308914
 31
0
 70
   32
  1
70
 71
    5
 72
    0
  3
Standard
 53
0
210
0
220
0
230
1
100
AcDbAlignedDimension
 13
187.3778127592693
 23
260.6882058960671
 33
0
 14
257.3778127592693
 24
260.6882058960671
 34
0
100
AcDbRotatedDimension
  0
DIMENSION
  5
C1
100
AcDbEntity
  8
0
  6
ByLayer
 62
  256
370
   -1
100
AcDbDimension
  2
*D7
 10
272.3778127592693
 20
160.6713871634691
 30
0
 11
222.3778127592693
 21
163.2963871634691
 31
0
 70
   32
  1
100
 71
    5
 72
    0
  3
Standard
 53
0
210
0
220
0
230
1
100
AcDbAlignedDimension
 13
172.3778127592693
 23
170.6882058960671
 33
0
 14
272.3778127592693
 24
170.6882058960671
 34
0
100
AcDbRotatedDimension
  0
MTEXT
  5
C2
100
AcDbEntity
  8
0
  6
ByLayer
 62
  256
370
   -1
100
AcDbMText
 10
405.548901104235
 20
44.29203015472874
 30
0
 40
4
 41
4.444444444444445
 71
    5
 72
    1
  1
1:1\P
  7
cyrillic_ii
210
0
220
0
230
1
 50
0
 73
    2
 44
1
  0
LINE
  5
C3
100
AcDbEntity
  8
0
  6
DASHDOT2
 62
  256
370
   70
100
AcDbLine
 10
102.3778127592693
 20
135.6882058960671
 11
102.3778127592693
 21
65.68820589606713
  0
LINE
  5
C4
100
AcDbEntity
  8
0
  6
DASHDOT2
 62
  256
370
   70
100
AcDbLine
 10
57.37781275926935
 20
100.6882058960671
 11
147.3778127592693
 21
100.6882058960671
  0
LINE
  5
C5
100
AcDbEntity
  8
0
  6
ByLayer
 62
  256
370
   70
100
AcDbLine
 10
152.3778127592693
 20
170.6882058960671
 11
152.3778127592693
 21
190.6882058960671
  0
LINE
  5
C6
100
AcDbEntity
  8
0
  6
ByLayer
 62
  256
370
   70
100
AcDbLine
 10
152.3778127592693
 20
190.6882058960671
 11
127.3778127592693
 21
190.6882058960671
  0
LINE
  5
C7
100
AcDbEntity
  8
0
  6
ByLayer
 62
  256
370
   70
100
AcDbLine
 10
127.3778127592693
 20
190.6882058960671
 11
102.3778127592693
 21
230.6882058960671
  0
LINE
  5
C8
100
AcDbEntity
  8
0
  6
ByLayer
 62
  256
370
   70
100
AcDbLine
 10
102.3778127592693
 20
230.6882058960671
 11
77.37781275926935
 21
190.6882058960671
  0
LINE
  5
C9
100
AcDbEntity
  8
0
  6
ByLayer
 62
  256
370
   70
100
AcDbLine
 10
77.37781275926935
 20
190.6882058960671
 11
52.37781275926935
 21
190.6882058960671
  0
LINE
  5
CA
100
AcDbEntity
  8
0
  6
ByLayer
 62
  256
370
   70
100
AcDbLine
 10
52.37781275926935
 20
190.6882058960671
 11
52.37781275926935
 21
170.6882058960671
  0
LINE
  5
CB
100
AcDbEntity
  8
0
  6
ByLayer
 62
  256
370
   70
100
AcDbLine
 10
67.37781275926935
 20
190.6882058960671
 11
67.37781275926935
 21
260.6882058960671
  0
LINE
  5
CC
100
AcDbEntity
  8
0
  6
ByLayer
 62
  256
370
   70
100
AcDbLine
 10
67.37781275926935
 20
260.6882058960671
 11
137.3778127592693
 21
260.6882058960671
  0
LINE
  5
CD
100
AcDbEntity
  8
0
  6
ByLayer
 62
  256
370
   70
100
AcDbLine
 10
137.3778127592693
 20
260.6882058960671
 11
137.3778127592693
 21
190.6882058960671
  0
LINE
  5
CE
100
AcDbEntity
  8
0
  6
ByLayer
 62
  256
370
   70
100
AcDbLine
 10
102.3778127592693
 20
230.6882058960671
 11
102.3778127592693
 21
260.6882058960671
  0
LINE
  5
CF
100
AcDbEntity
  8
0
  6
ByLayer
 62
  256
370
   70
100
AcDbLine
 10
52.37781275926935
 20
50.68820589606713
 11
152.3778127592693
 21
50.68820589606713
  0
LINE
  5
D0
100
AcDbEntity
  8
0
  6
ByLayer
 62
  256
370
   70
100
AcDbLine
 10
52.37781275926935
 20
150.6882058960671
 11
152.3778127592693
 21
150.6882058960671
  0
LINE
  5
D1
100
AcDbEntity
  8
0
  6
ByBlock
 62
  256
370
   70
100
AcDbLine
 10
152.3778127592693
 20
150.6882058960671
 11
152.3778127592693
 21
50.68820589606713
  0
LINE
  5
D2
100
AcDbEntity
  8
0
  6
ByBlock
 62
  256
370
   70
100
AcDbLine
 10
52.37781275926935
 20
150.6882058960672
 11
52.37781275926935
 21
50.68820589606725
  0
LINE
  5
D3
100
AcDbEntity
  8
0
  6
ByBlock
 62
  256
370
   70
100
AcDbLine
 10
102.3778127592693
 20
135.6882058960671
 11
67.37781275926935
 21
100.6882058960671
  0
LINE
  5
D4
100
AcDbEntity
  8
0
  6
ByBlock
 62
  256
370
   70
100
AcDbLine
 10
67.37781275926935
 20
100.6882058960671
 11
102.3778127592693
 21
65.68820589606713
  0
LINE
  5
D5
100
AcDbEntity
  8
0
  6
ByBlock
 62
  256
370
   70
100
AcDbLine
 10
102.3778127592693
 20
65.68820589606713
 11
137.3778127592693
 21
100.6882058960671
  0
LINE
  5
D6
100
AcDbEntity
  8
0
  6
ByBlock
 62
  256
370
   70
100
AcDbLine
 10
137.3778127592693
 20
100.6882058960671
 11
102.3778127592693
 21
135.6882058960671
  0
LINE
  5
D7
100
AcDbEntity
  8
0
  6
ByBlock
 62
  256
370
   70
100
AcDbLine
 10
102.3778127592693
 20
150.6882058960671
 11
102.3778127592693
 21
135.6882058960671
  0
LINE
  5
D8
100
AcDbEntity
  8
0
  6
ByBlock
 62
  256
370
   70
100
AcDbLine
 10
102.3778127592693
 20
65.68820589606713
 11
102.3778127592693
 21
50.68820589606713
  0
LINE
  5
D9
100
AcDbEntity
  8
0
  6
ByBlock
 62
  256
370
   70
100
AcDbLine
 10
127.3778127592693
 20
150.6882058960671
 11
127.3778127592693
 21
110.6882058960672
  0
LINE
  5
DA
100
AcDbEntity
  8
0
  6
ByBlock
 62
  256
370
   70
100
AcDbLine
 10
77.37781275926935
 20
150.6882058960671
 11
77.37781275926933
 21
110.688205896067
  0
LINE
  5
DB
100
AcDbEntity
  8
0
  6
ByBlock
 62
  256
370
   70
100
AcDbLine
 10
77.37781275926935
 20
90.68820589606725
 11
77.37781275926935
 21
50.68820589606713
  0
LINE
  5
DC
100
AcDbEntity
  8
0
  6
ByBlock
 62
  256
370
   70
100
AcDbLine
 10
127.3778127592693
 20
90.68820589606702
 11
127.3778127592693
 21
50.68820589606713
  0
LINE
  5
DD
100
AcDbEntity
  8
0
  6
ByLayer
 62
  256
370
   70
100
AcDbLine
 10
172.3778127592693
 20
170.6882058960671
 11
272.3778127592693
 21
170.6882058960671
  0
LINE
  5
DE
100
AcDbEntity
  8
0
  6
ByLayer
 62
  256
370
   70
100
AcDbLine
 10
172.3778127592693
 20
170.6882058960671
 11
172.3778127592693
 21
190.6882058960671
  0
LINE
  5
DF
100
AcDbEntity
  8
0
  6
ByLayer
 62
  256
370
   70
100
AcDbLine
 10
272.3778127592693
 20
170.6882058960671
 11
272.3778127592693
 21
190.6882058960671
  0
LINE
  5
E0
100
AcDbEntity
  8
0
  6
ByLayer
 62
  256
370
   70
100
AcDbLine
 10
172.3778127592693
 20
190.6882058960671
 11
272.3778127592693
 21
190.6882058960671
  0
LINE
  5
E1
100
AcDbEntity
  8
0
  6
ByLayer
 62
  256
370
   70
100
AcDbLine
 10
272.3778127592693
 20
190.6882058960671
 11
272.3778127592693
 21
230.6882058960671
  0
LINE
  5
E2
100
AcDbEntity
  8
0
  6
ByLayer
 62
  256
370
   70
100
AcDbLine
 10
272.3778127592693
 20
230.6882058960671
 11
257.3778127592693
 21
230.6882058960671
  0
LINE
  5
E3
100
AcDbEntity
  8
0
  6
ByBlock
 62
  256
370
   70
100
AcDbLine
 10
236.5199127592694
 20
190.6882058960671
 11
257.3778127592693
 21
230.6882058960671
  0
LINE
  5
E4
100
AcDbEntity
  8
0
  6
ByBlock
 62
  256
370
   70
100
AcDbLine
 10
172.3778127592693
 20
190.6882058960671
 11
172.3778127592693
 21
230.6882058960671
  0
LINE
  5
E5
100
AcDbEntity
  8
0
  6
ByBlock
 62
  256
370
   70
100
AcDbLine
 10
172.3778127592693
 20
230.6882058960671
 11
187.3778127592693
 21
230.6882058960671
  0
LINE
  5
E6
100
AcDbEntity
  8
0
  6
ByBlock
 62
  256
370
   70
100
AcDbLine
 10
208.2357127592693
 20
190.6882058960671
 11
187.3778127592693
 21
230.6882058960671
  0
LINE
  5
E7
100
AcDbEntity
  8
0
  6
ByBlock
 62
  256
370
   70
100
AcDbLine
 10
222.3778127592693
 20
190.6882058960671
 11
222.3778127592693
 21
260.6882058960671
  0
LINE
  5
E8
100
AcDbEntity
  8
0
  6
ByBlock
 62
  256
370
   70
100
AcDbLine
 10
222.3778127592693
 20
260.6882058960671
 11
257.3778127592693
 21
260.6882058960671
  0
LINE
  5
E9
100
AcDbEntity
  8
0
  6
ByBlock
 62
  256
370
   70
100
AcDbLine
 10
257.3778127592693
 20
260.6882058960671
 11
257.3778127592693
 21
230.6882058960671
  0
LINE
  5
EA
100
AcDbEntity
  8
0
  6
ByBlock
 62
  256
370
   70
100
AcDbLine
 10
187.3778127592693
 20
260.6882058960671
 11
222.3778127592693
 21
260.6882058960671
  0
LINE
  5
EB
100
AcDbEntity
  8
0
  6
ByBlock
 62
  256
370
   70
100
AcDbLine
 10
187.3778127592693
 20
260.6882058960671
 11
187.3778127592693
 21
230.6882058960671
  0
LINE
  5
EC
100
AcDbEntity
  8
0
  6
ByLayer
 62
  256
370
   70
100
AcDbLine
 10
52.37781275926935
 20
170.6882058960671
 11
152.3778127592693
 21
170.6882058960671
  0
LWPOLYLINE
  5
ED
100
AcDbEntity
  8
0
  6
ByLayer
 62
  256
370
   70
100
AcDbPolyline
 90
    4
 70
    1
 43
0
 10
414.9999998489689
 20
19.999999955867
 10
414.9999998489689
 20
291.999999955867
 10
4.99999984896894
 20
291.999999955867
 10
4.999999848968912
 20
19.999999955867
  0
ENDSEC
  0
SECTION
  2
OBJECTS
  0
DICTIONARY
  5
C
330
0
100
AcDbDictionary
281
    1
  3
ACAD_GROUP
350
D
  0
DICTIONARY
  5
D
330
C
100
AcDbDictionary
281
    1
  0
ENDSEC
  0
EOF
