999
dxfrw 0.6.3
  0
SECTION
  2
HEADER
  9
$ACADVER
  1
AC1021
  9
$DWGCODEPAGE
  3
ANSI_1252
  9
$INSBASE
 10
0
 20
0
 30
0
  9
$EXTMIN
 10
7.65960129456289e-006
 20
-7.65960129456289e-006
 30
0
  9
$EXTMAX
 10
420.0000076596014
 20
296.9999923403987
 30
0
  9
$LIMMIN
 10
0
 20
0
  9
$LIMMAX
 10
420
 20
297
  9
$ORTHOMODE
 70
    0
  9
$REGENMODE
 70
    1
  9
$FILLMODE
 70
    1
  9
$QTEXTMODE
 70
    0
  9
$MIRRTEXT
 70
    0
  9
$LTSCALE
 40
1
  9
$ATTMODE
 70
    0
  9
$TEXTSIZE
 40
2.5
  9
$TRACEWID
 40
15.68
  9
$TEXTSTYLE
  7
STANDARD
  9
$CLAYER
  8
0
  9
$CELTYPE
  6
BYLAYER
  9
$CECOLOR
 62
  256
  9
$CELTSCALE
 40
1
  9
$DISPSILH
 70
    0
  9
$DIMSCALE
 40
1
  9
$DIMASZ
 40
2.5
  9
$DIMEXO
 40
0.625
  9
$DIMDLI
 40
3.75
  9
$DIMRND
 40
0
  9
$DIMDLE
 40
0
  9
$DIMEXE
 40
1.25
  9
$DIMTP
 40
0
  9
$DIMTM
 40
0
  9
$DIMTXT
 40
3
  9
$DIMCEN
 40
2.5
  9
$DIMTSZ
 40
0
  9
$DIMTOL
 70
    0
  9
$DIMLIM
 70
    0
  9
$DIMTIH
 70
    0
  9
$DIMTOH
 70
    0
  9
$DIMSE1
 70
    0
  9
$DIMSE2
 70
    0
  9
$DIMTAD
 70
    1
  9
$DIMZIN
 70
    8
  9
$DIMBLK
  1

  9
$DIMASO
 70
    1
  9
$DIMSHO
 70
    1
  9
$DIMPOST
  1

  9
$DIMAPOST
  1

  9
$DIMALT
 70
    0
  9
$DIMALTD
 70
    3
  9
$DIMALTF
 40
0.03937
  9
$DIMLFAC
 40
1
  9
$DIMTOFL
 70
    1
  9
$DIMTVP
 40
0
  9
$DIMTIX
 70
    0
  9
$DIMSOXD
 70
    0
  9
$DIMSAH
 70
    0
  9
$DIMBLK1
  1

  9
$DIMBLK2
  1

  9
$DIMSTYLE
  2
STANDARD
  9
$DIMCLRD
 70
    0
  9
$DIMCLRE
 70
    0
  9
$DIMCLRT
 70
    0
  9
$DIMTFAC
 40
1
  9
$DIMGAP
 40
0.625
  9
$DIMJUST
 70
    0
  9
$DIMSD1
 70
    0
  9
$DIMSD2
 70
    0
  9
$DIMTOLJ
 70
    0
  9
$DIMTZIN
 70
    8
  9
$DIMALTZ
 70
    0
  9
$DIMALTTZ
 70
    0
  9
$DIMUPT
 70
    0
  9
$DIMDEC
 70
    2
  9
$DIMTDEC
 70
    2
  9
$DIMALTU
 70
    2
  9
$DIMALTTD
 70
    3
  9
$DIMTXSTY
  7
standard
  9
$DIMAUNIT
 70
    0
  9
$DIMADEC
 70
    0
  9
$DIMALTRND
 40
0
  9
$DIMAZIN
 70
    0
  9
$DIMDSEP
 70
   44
  9
$DIMATFIT
 70
    3
  9
$DIMFRAC
 70
    0
  9
$DIMLDRBLK
  1
STANDARD
  9
$DIMLUNIT
 70
    2
  9
$DIMLWD
 70
   -2
  9
$DIMLWE
 70
   -2
  9
$DIMTMOVE
 70
    0
  9
$DIMFXL
 40
1
  9
$DIMFXLON
 70
    0
  9
$DIMJOGANG
 40
0.7854
  9
$DIMTFILL
 70
    0
  9
$DIMTFILLCLR
 70
    0
  9
$DIMARCSYM
 70
    0
  9
$DIMLTYPE
  6

  9
$DIMLTEX1
  6

  9
$DIMLTEX2
  6

  9
$LUNITS
 70
    2
  9
$LUPREC
 70
    0
  9
$SKETCHINC
 40
1
  9
$FILLETRAD
 40
0
  9
$AUNITS
 70
    0
  9
$AUPREC
 70
    2
  9
$MENU
  1
.
  9
$ELEVATION
 40
0
  9
$PELEVATION
 40
0
  9
$THICKNESS
 40
0
  9
$LIMCHECK
 70
    0
  9
$CHAMFERA
 40
0
  9
$CHAMFERB
 40
0
  9
$CHAMFERC
 40
0
  9
$CHAMFERD
 40
0
  9
$SKPOLY
 70
    0
  9
$USRTIMER
 70
    1
  9
$ANGBASE
 50
0
  9
$ANGDIR
 70
    0
  9
$PDMODE
 70
   34
  9
$PDSIZE
 40
0
  9
$PLINEWID
 40
0
  9
$SPLFRAME
 70
    0
  9
$SPLINETYPE
 70
    2
  9
$SPLINESEGS
 70
    8
  9
$HANDSEED
  5
20000
  9
$SURFTAB1
 70
    6
  9
$SURFTAB2
 70
    6
  9
$SURFTYPE
 70
    6
  9
$SURFU
 70
    6
  9
$SURFV
 70
    6
  9
$UCSBASE
  2

  9
$UCSNAME
  2

  9
$UCSORG
 10
0
 20
0
 30
0
  9
$UCSXDIR
 10
1
 20
0
 30
0
  9
$UCSYDIR
 10
0
 20
1
 30
0
  9
$UCSORTHOREF
  2

  9
$UCSORTHOVIEW
 70
    0
  9
$UCSORGTOP
 10
0
 20
0
 30
0
  9
$UCSORGBOTTOM
 10
0
 20
0
 30
0
  9
$UCSORGLEFT
 10
0
 20
0
 30
0
  9
$UCSORGRIGHT
 10
0
 20
0
 30
0
  9
$UCSORGFRONT
 10
0
 20
0
 30
0
  9
$UCSORGBACK
 10
0
 20
0
 30
0
  9
$PUCSBASE
  2

  9
$PUCSNAME
  2

  9
$PUCSORG
 10
0
 20
0
 30
0
  9
$PUCSXDIR
 10
1
 20
0
 30
0
  9
$PUCSYDIR
 10
0
 20
1
 30
0
  9
$PUCSORTHOREF
  2

  9
$PUCSORTHOVIEW
 70
    0
  9
$PUCSORGTOP
 10
0
 20
0
 30
0
  9
$PUCSORGBOTTOM
 10
0
 20
0
 30
0
  9
$PUCSORGLEFT
 10
0
 20
0
 30
0
  9
$PUCSORGRIGHT
 10
0
 20
0
 30
0
  9
$PUCSORGFRONT
 10
0
 20
0
 30
0
  9
$PUCSORGBACK
 10
0
 20
0
 30
0
  9
$USERI1
 70
    0
  9
$USERI2
 70
    0
  9
$USERI3
 70
    0
  9
$USERI4
 70
    0
  9
$USERI5
 70
    0
  9
$USERR1
 40
0
  9
$USERR2
 40
0
  9
$USERR3
 40
0
  9
$USERR4
 40
0
  9
$USERR5
 40
0
  9
$WORLDVIEW
 70
    1
  9
$SHADEDGE
 70
    3
  9
$SHADEDIF
 70
   70
  9
$TILEMODE
 70
    1
  9
$MAXACTVP
 70
   64
  9
$PINSBASE
 10
0
 20
0
 30
0
  9
$PLIMCHECK
 70
    0
  9
$PEXTMIN
 10
0
 20
0
 30
0
  9
$PEXTMAX
 10
0
 20
0
 30
0
  9
$GRIDMODE
 70
    1
  9
$SNAPSTYLE
 70
    0
  9
$GRIDUNIT
 10
0
 20
0
  9
$PLIMMIN
 10
0
 20
0
  9
$PLIMMAX
 10
210
 20
297
  9
$UNITMODE
 70
    0
  9
$VISRETAIN
 70
    1
  9
$PLINEGEN
 70
    0
  9
$PSLTSCALE
 70
    1
  9
$TREEDEPTH
 70
 3020
  9
$CMLSTYLE
  2
Standard
  9
$CMLJUST
 70
    0
  9
$CMLSCALE
 40
20
  9
$PROXYGRAPHICS
 70
    1
  9
$MEASUREMENT
 70
    1
  9
$CELWEIGHT
370
   -1
  9
$ENDCAPS
280
    0
  9
$JOINSTYLE
280
    0
  9
$LWDISPLAY
290
    0
  9
$INSUNITS
 70
    4
  9
$HYPERLINKBASE
  1

  9
$STYLESHEET
  1

  9
$XEDIT
290
    1
  9
$CEPSNTYPE
380
    0
  9
$PSTYLEMODE
290
    1
  9
$EXTNAMES
290
    1
  9
$PSVPSCALE
 40
1
  9
$OLESTARTUP
290
    0
  9
$SORTENTS
280
  127
  9
$INDEXCTL
280
    0
  9
$HIDETEXT
280
    1
  9
$XCLIPFRAME
290
    0
  9
$HALOGAP
280
    0
  9
$OBSCOLOR
 70
  257
  9
$OBSLTYPE
280
    0
  9
$INTERSECTIONDISPLAY
280
    0
  9
$INTERSECTIONCOLOR
 70
  257
  9
$DIMASSOC
280
    1
  9
$PROJECTNAME
  1

  9
$CAMERADISPLAY
290
    0
  9
$LENSLENGTH
 40
50
  9
$CAMERAHEIGHT
 40
0
  9
$STEPSPERSEC
 40
2
  9
$STEPSIZE
 40
50
  9
$3DDWFPREC
 40
2
  9
$PSOLWIDTH
 40
5
  9
$PSOLHEIGHT
 40
80
  9
$LOFTANG1
 40
1.570796326794897
  9
$LOFTANG2
 40
1.570796326794897
  9
$LOFTMAG1
 40
0
  9
$LOFTMAG2
 40
0
  9
$LOFTPARAM
 70
    7
  9
$LOFTNORMALS
280
    1
  9
$LATITUDE
 40
1
  9
$LONGITUDE
 40
1
  9
$NORTHDIRECTION
 40
0
  9
$TIMEZONE
 70
-8000
  9
$LIGHTGLYPHDISPLAY
280
    1
  9
$TILEMODELIGHTSYNCH
280
    1
  9
$SOLIDHIST
280
    1
  9
$SHOWHIST
280
    1
  9
$DWFFRAME
280
    2
  9
$DGNFRAME
280
    0
  9
$REALWORLDSCALE
290
    1
  9
$INTERFERECOLOR
 62
    1
  9
$CSHADOW
280
    0
  9
$SHADOWPLANELOCATION
 40
0
  0
ENDSEC
  0
SECTION
  2
CLASSES
  0
ENDSEC
  0
SECTION
  2
TABLES
  0
TABLE
  2
VPORT
  5
8
330
0
100
AcDbSymbolTable
 70
    1
  0
VPORT
  5
31
330
2
100
AcDbSymbolTableRecord
100
AcDbViewportTableRecord
  2
*ACTIVE
 70
    0
 10
0
 20
0
 11
1
 21
1
 12
215.8092487804892
 22
63.9175804878053
 13
0
 23
0
 14
10
 24
10
 15
10
 25
10
 16
0
 26
0
 36
1
 17
0
 27
0
 37
0
 40
228.2570926829283
 41
1.963235294117647
 42
50
 43
0
 44
0
 50
0
 51
0
 71
    0
 72
  100
 73
    1
 74
    3
 75
    0
 76
    1
 77
    0
 78
    0
281
    0
 65
    1
110
0
120
0
130
0
111
1
121
0
131
0
112
0
122
1
132
0
 79
    0
146
0
348
10020
 60
    7
 61
    5
292
1
282
    1
141
0
142
0
 63
  250
421
3358443
  0
ENDTAB
  0
TABLE
  2
LTYPE
  5
5
330
0
100
AcDbSymbolTable
 70
    4
  0
LTYPE
  5
14
330
5
100
AcDbSymbolTableRecord
100
AcDbLinetypeTableRecord
  2
ByBlock
 70
    0
  3

 72
   65
 73
    0
 40
0
  0
LTYPE
  5
15
330
5
100
AcDbSymbolTableRecord
100
AcDbLinetypeTableRecord
  2
ByLayer
 70
    0
  3

 72
   65
 73
    0
 40
0
  0
LTYPE
  5
16
330
5
100
AcDbSymbolTableRecord
100
AcDbLinetypeTableRecord
  2
Continuous
 70
    0
  3
Solid line
 72
   65
 73
    0
 40
0
  0
LTYPE
  5
32
330
5
100
AcDbSymbolTableRecord
100
AcDbLinetypeTableRecord
  2
DOT
 70
    0
  3
Dot . . . . . . . . . . . . . . . . . . . . . .
 72
   65
 73
    2
 40
6.35
 49
0
 74
    0
 49
-6.35
 74
    0
  0
LTYPE
  5
33
330
5
100
AcDbSymbolTableRecord
100
AcDbLinetypeTableRecord
  2
DOTTINY
 70
    0
  3
Dot (.15x) .....................................
 72
   65
 73
    2
 40
0.9525
 49
0
 74
    0
 49
-0.9525
 74
    0
  0
LTYPE
  5
34
330
5
100
AcDbSymbolTableRecord
100
AcDbLinetypeTableRecord
  2
DOT2
 70
    0
  3
Dot (.5x) .....................................
 72
   65
 73
    2
 40
3.175
 49
0
 74
    0
 49
-3.175
 74
    0
  0
LTYPE
  5
35
330
5
100
AcDbSymbolTableRecord
100
AcDbLinetypeTableRecord
  2
DOTX2
 70
    0
  3
Dot (2x) .  .  .  .  .  .  .  .  .  .  .  .  .
 72
   65
 73
    2
 40
12.7
 49
0
 74
    0
 49
-12.7
 74
    0
  0
LTYPE
  5
36
330
5
100
AcDbSymbolTableRecord
100
AcDbLinetypeTableRecord
  2
DASHED
 70
    0
  3
Dashed _ _ _ _ _ _ _ _ _ _ _ _ _ _ _ _ _
 72
   65
 73
    2
 40
19.05
 49
12.7
 74
    0
 49
-6.35
 74
    0
  0
LTYPE
  5
37
330
5
100
AcDbSymbolTableRecord
100
AcDbLinetypeTableRecord
  2
DASHEDTINY
 70
    0
  3
Dashed (.15x) _ _ _ _ _ _ _ _ _ _ _ _ _ _ _ _ _
 72
   65
 73
    2
 40
2.8575
 49
1.905
 74
    0
 49
-0.9525
 74
    0
  0
LTYPE
  5
38
330
5
100
AcDbSymbolTableRecord
100
AcDbLinetypeTableRecord
  2
DASHED2
 70
    0
  3
Dashed (.5x) _ _ _ _ _ _ _ _ _ _ _ _ _ _ _ _ _
 72
   65
 73
    2
 40
9.524999999999999
 49
6.35
 74
    0
 49
-3.175
 74
    0
  0
LTYPE
  5
39
330
5
100
AcDbSymbolTableRecord
100
AcDbLinetypeTableRecord
  2
DASHEDX2
 70
    0
  3
Dashed (2x) ____  ____  ____  ____  ____  ___
 72
   65
 73
    2
 40
38.09999999999999
 49
25.4
 74
    0
 49
-12.7
 74
    0
  0
LTYPE
  5
3A
330
5
100
AcDbSymbolTableRecord
100
AcDbLinetypeTableRecord
  2
DASHDOT
 70
    0
  3
Dash dot __ . __ . __ . __ . __ . __ . __ . __
 72
   65
 73
    4
 40
25.4
 49
12.7
 74
    0
 49
-6.35
 74
    0
 49
0
 74
    0
 49
-6.35
 74
    0
  0
LTYPE
  5
3B
330
5
100
AcDbSymbolTableRecord
100
AcDbLinetypeTableRecord
  2
DASHDOTTINY
 70
    0
  3
Dash dot (.15x) _._._._._._._._._._._._._._._.
 72
   65
 73
    4
 40
3.81
 49
1.905
 74
    0
 49
-0.9525
 74
    0
 49
0
 74
    0
 49
-0.9525
 74
    0
  0
LTYPE
  5
3C
330
5
100
AcDbSymbolTableRecord
100
AcDbLinetypeTableRecord
  2
DASHDOT2
 70
    0
  3
Dash dot (.5x) _._._._._._._._._._._._._._._.
 72
   65
 73
    4
 40
12.7
 49
6.35
 74
    0
 49
-3.175
 74
    0
 49
0
 74
    0
 49
-3.175
 74
    0
  0
LTYPE
  5
3D
330
5
100
AcDbSymbolTableRecord
100
AcDbLinetypeTableRecord
  2
DASHDOTX2
 70
    0
  3
Dash dot (2x) ____  .  ____  .  ____  .  ___
 72
   65
 73
    4
 40
50.8
 49
25.4
 74
    0
 49
-12.7
 74
    0
 49
0
 74
    0
 49
-12.7
 74
    0
  0
LTYPE
  5
3E
330
5
100
AcDbSymbolTableRecord
100
AcDbLinetypeTableRecord
  2
DIVIDE
 70
    0
  3
Divide ____ . . ____ . . ____ . . ____ . . ____
 72
   65
 73
    6
 40
31.75
 49
12.7
 74
    0
 49
-6.35
 74
    0
 49
0
 74
    0
 49
-6.35
 74
    0
 49
0
 74
    0
 49
-6.35
 74
    0
  0
LTYPE
  5
3F
330
5
100
AcDbSymbolTableRecord
100
AcDbLinetypeTableRecord
  2
DIVIDETINY
 70
    0
  3
Divide (.15x) __..__..__..__..__..__..__..__.._
 72
   65
 73
    6
 40
4.7625
 49
1.905
 74
    0
 49
-0.9525
 74
    0
 49
0
 74
    0
 49
-0.9525
 74
    0
 49
0
 74
    0
 49
-0.9525
 74
    0
  0
LTYPE
  5
40
330
5
100
AcDbSymbolTableRecord
100
AcDbLinetypeTableRecord
  2
DIVIDE2
 70
    0
  3
Divide (.5x) __..__..__..__..__..__..__..__.._
 72
   65
 73
    6
 40
15.875
 49
6.35
 74
    0
 49
-3.175
 74
    0
 49
0
 74
    0
 49
-3.175
 74
    0
 49
0
 74
    0
 49
-3.175
 74
    0
  0
LTYPE
  5
41
330
5
100
AcDbSymbolTableRecord
100
AcDbLinetypeTableRecord
  2
DIVIDEX2
 70
    0
  3
Divide (2x) ________  .  .  ________  .  .  _
 72
   65
 73
    6
 40
63.5
 49
25.4
 74
    0
 49
-12.7
 74
    0
 49
0
 74
    0
 49
-12.7
 74
    0
 49
0
 74
    0
 49
-12.7
 74
    0
  0
LTYPE
  5
42
330
5
100
AcDbSymbolTableRecord
100
AcDbLinetypeTableRecord
  2
BORDER
 70
    0
  3
Border __ __ . __ __ . __ __ . __ __ . __ __ .
 72
   65
 73
    6
 40
44.45
 49
12.7
 74
    0
 49
-6.35
 74
    0
 49
12.7
 74
    0
 49
-6.35
 74
    0
 49
0
 74
    0
 49
-6.35
 74
    0
  0
LTYPE
  5
43
330
5
100
AcDbSymbolTableRecord
100
AcDbLinetypeTableRecord
  2
BORDERTINY
 70
    0
  3
Border (.15x) __.__.__.__.__.__.__.__.__.__.__.
 72
   65
 73
    6
 40
6.6675
 49
1.905
 74
    0
 49
-0.9525
 74
    0
 49
1.905
 74
    0
 49
-0.9525
 74
    0
 49
0
 74
    0
 49
-0.9525
 74
    0
  0
LTYPE
  5
44
330
5
100
AcDbSymbolTableRecord
100
AcDbLinetypeTableRecord
  2
BORDER2
 70
    0
  3
Border (.5x) __.__.__.__.__.__.__.__.__.__.__.
 72
   65
 73
    6
 40
22.225
 49
6.35
 74
    0
 49
-3.175
 74
    0
 49
6.35
 74
    0
 49
-3.175
 74
    0
 49
0
 74
    0
 49
-3.175
 74
    0
  0
LTYPE
  5
45
330
5
100
AcDbSymbolTableRecord
100
AcDbLinetypeTableRecord
  2
BORDERX2
 70
    0
  3
Border (2x) ____  ____  .  ____  ____  .  ___
 72
   65
 73
    6
 40
88.89999999999999
 49
25.4
 74
    0
 49
-12.7
 74
    0
 49
25.4
 74
    0
 49
-12.7
 74
    0
 49
0
 74
    0
 49
-12.7
 74
    0
  0
LTYPE
  5
46
330
5
100
AcDbSymbolTableRecord
100
AcDbLinetypeTableRecord
  2
CENTER
 70
    0
  3
Center ____ _ ____ _ ____ _ ____ _ ____ _ ____
 72
   65
 73
    4
 40
50.8
 49
31.75
 74
    0
 49
-6.35
 74
    0
 49
6.35
 74
    0
 49
-6.35
 74
    0
  0
LTYPE
  5
47
330
5
100
AcDbSymbolTableRecord
100
AcDbLinetypeTableRecord
  2
CENTERTINY
 70
    0
  3
Center (.15x) ___ _ ___ _ ___ _ ___ _ ___ _ ___
 72
   65
 73
    4
 40
7.62
 49
4.7625
 74
    0
 49
-0.9525
 74
    0
 49
0.9525
 74
    0
 49
-0.9525
 74
    0
  0
LTYPE
  5
48
330
5
100
AcDbSymbolTableRecord
100
AcDbLinetypeTableRecord
  2
CENTER2
 70
    0
  3
Center (.5x) ___ _ ___ _ ___ _ ___ _ ___ _ ___
 72
   65
 73
    4
 40
28.575
 49
19.05
 74
    0
 49
-3.175
 74
    0
 49
3.175
 74
    0
 49
-3.175
 74
    0
  0
LTYPE
  5
49
330
5
100
AcDbSymbolTableRecord
100
AcDbLinetypeTableRecord
  2
CENTERX2
 70
    0
  3
Center (2x) ________  __  ________  __  _____
 72
   65
 73
    4
 40
101.6
 49
63.5
 74
    0
 49
-12.7
 74
    0
 49
12.7
 74
    0
 49
-12.7
 74
    0
  0
ENDTAB
  0
TABLE
  2
LAYER
  5
2
330
0
100
AcDbSymbolTable
 70
    1
  0
LAYER
  5
10
330
2
100
AcDbSymbolTableRecord
100
AcDbLayerTableRecord
  2
0
 70
    0
 62
    7
  6
CONTINUOUS
370
    0
390
F
  0
LAYER
  5
4A
330
2
100
AcDbSymbolTableRecord
100
AcDbLayerTableRecord
  2
dash
 70
    0
 62
    7
  6
DASHED2
370
    0
390
F
  0
ENDTAB
  0
TABLE
  2
STYLE
  5
3
330
0
100
AcDbSymbolTable
 70
    3
  0
STYLE
  5
4B
330
2
100
AcDbSymbolTableRecord
100
AcDbTextStyleTableRecord
  2
cyrillic_ii
 70
    0
 40
0
 41
1
 50
0
 71
    0
 42
1
  3
cyrillic_ii
  4

  0
STYLE
  5
4C
330
2
100
AcDbSymbolTableRecord
100
AcDbTextStyleTableRecord
  2
Standard
 70
    0
 40
0
 41
1
 50
0
 71
    0
 42
1
  3
txt
  4

  0
ENDTAB
  0
TABLE
  2
VIEW
  5
6
330
0
100
AcDbSymbolTable
 70
    0
  0
ENDTAB
  0
TABLE
  2
UCS
  5
7
330
0
100
AcDbSymbolTable
 70
    0
  0
ENDTAB
  0
TABLE
  2
APPID
  5
9
330
0
100
AcDbSymbolTable
 70
    1
  0
APPID
  5
12
330
9
100
AcDbSymbolTableRecord
100
AcDbRegAppTableRecord
  2
ACAD
 70
    0
  0
APPID
  5
4D
330
9
100
AcDbSymbolTableRecord
100
AcDbRegAppTableRecord
  2
LibreCad
 70
    0
  0
ENDTAB
  0
TABLE
  2
DIMSTYLE
  5
A
330
0
100
AcDbSymbolTable
 70
    1
100
AcDbDimStyleTable
 71
    1
  0
DIMSTYLE
105
4E
330
A
100
AcDbSymbolTableRecord
100
AcDbDimStyleTableRecord
  2
Standard
 70
    0
 40
1
 41
2.5
 42
0.625
 43
0.38
 44
1.25
 45
0
 46
0
 47
0
 48
0
 49
1
140
3
141
0.09
142
0
143
25.4
144
1
145
0
146
1
147
0.625
148
0
 71
    0
 72
    0
 73
    0
 74
    1
 75
    0
 76
    0
 77
    0
 78
    8
 79
    0
170
    0
171
    2
172
    0
173
    0
174
    0
175
    0
176
    0
177
    0
178
    0
179
    0
271
    2
272
    4
273
    2
274
    2
275
    0
276
    0
277
    2
278
   44
279
    0
280
    0
281
    0
282
    0
283
    1
284
    0
285
    0
286
    0
288
    0
289
    3
340
standard
341

371
   -2
372
   -2
  0
ENDTAB
  0
TABLE
  2
BLOCK_RECORD
  5
1
330
0
100
AcDbSymbolTable
 70
    2
  0
BLOCK_RECORD
  5
1F
330
1
100
AcDbSymbolTableRecord
100
AcDbBlockTableRecord
  2
*Model_Space
 70
    0
280
    1
281
    0
  0
BLOCK_RECORD
  5
1E
330
1
100
AcDbSymbolTableRecord
100
AcDbBlockTableRecord
  2
*Paper_Space
 70
    0
280
    1
281
    0
  0
BLOCK_RECORD
  5
4F
330
1
100
AcDbSymbolTableRecord
100
AcDbBlockTableRecord
  2
*D6
 70
    0
280
    1
281
    0
  0
BLOCK_RECORD
  5
52
330
1
100
AcDbSymbolTableRecord
100
AcDbBlockTableRecord
  2
*D12
 70
    0
280
    1
281
    0
  0
BLOCK_RECORD
  5
55
330
1
100
AcDbSymbolTableRecord
100
AcDbBlockTableRecord
  2
*D2
 70
    0
280
    1
281
    0
  0
BLOCK_RECORD
  5
58
330
1
100
AcDbSymbolTableRecord
100
AcDbBlockTableRecord
  2
*D3
 70
    0
280
    1
281
    0
  0
BLOCK_RECORD
  5
5B
330
1
100
AcDbSymbolTableRecord
100
AcDbBlockTableRecord
  2
*D7
 70
    0
280
    1
281
    0
  0
BLOCK_RECORD
  5
5E
330
1
100
AcDbSymbolTableRecord
100
AcDbBlockTableRecord
  2
*D14
 70
    0
280
    1
281
    0
  0
BLOCK_RECORD
  5
61
330
1
100
AcDbSymbolTableRecord
100
AcDbBlockTableRecord
  2
*D1
 70
    0
280
    1
281
    0
  0
BLOCK_RECORD
  5
64
330
1
100
AcDbSymbolTableRecord
100
AcDbBlockTableRecord
  2
*D9
 70
    0
280
    1
281
    0
  0
BLOCK_RECORD
  5
67
330
1
100
AcDbSymbolTableRecord
100
AcDbBlockTableRecord
  2
*D5
 70
    0
280
    1
281
    0
  0
BLOCK_RECORD
  5
6A
330
1
100
AcDbSymbolTableRecord
100
AcDbBlockTableRecord
  2
*D4
 70
    0
280
    1
281
    0
  0
BLOCK_RECORD
  5
6D
330
1
100
AcDbSymbolTableRecord
100
AcDbBlockTableRecord
  2
*D8
 70
    0
280
    1
281
    0
  0
BLOCK_RECORD
  5
70
330
1
100
AcDbSymbolTableRecord
100
AcDbBlockTableRecord
  2
*D13
 70
    0
280
    1
281
    0
  0
BLOCK_RECORD
  5
73
330
1
100
AcDbSymbolTableRecord
100
AcDbBlockTableRecord
  2
*D11
 70
    0
280
    1
281
    0
  0
BLOCK_RECORD
  5
76
330
1
100
AcDbSymbolTableRecord
100
AcDbBlockTableRecord
  2
*D16
 70
    0
280
    1
281
    0
  0
BLOCK_RECORD
  5
79
330
1
100
AcDbSymbolTableRecord
100
AcDbBlockTableRecord
  2
*D10
 70
    0
280
    1
281
    0
  0
BLOCK_RECORD
  5
7C
330
1
100
AcDbSymbolTableRecord
100
AcDbBlockTableRecord
  2
*D15
 70
    0
280
    1
281
    0
  0
BLOCK_RECORD
  5
7F
330
1
100
AcDbSymbolTableRecord
100
AcDbBlockTableRecord
  2
a3
 70
    0
280
    1
281
    0
  0
BLOCK_RECORD
  5
82
330
1
100
AcDbSymbolTableRecord
100
AcDbBlockTableRecord
  2
a3-0
 70
    0
280
    1
281
    0
  0
ENDTAB
  0
ENDSEC
  0
SECTION
  2
BLOCKS
  0
BLOCK
  5
20
330
1F
100
AcDbEntity
  8
0
100
AcDbBlockBegin
  2
*Model_Space
 70
    0
 10
0
 20
0
 30
0
  3
*Model_Space
  1

  0
ENDBLK
  5
21
330
1F
100
AcDbEntity
  8
0
100
AcDbBlockEnd
  0
BLOCK
  5
1C
330
1B
100
AcDbEntity
  8
0
100
AcDbBlockBegin
  2
*Paper_Space
 70
    0
 10
0
 20
0
 30
0
  3
*Paper_Space
  1

  0
ENDBLK
  5
1D
330
1F
100
AcDbEntity
  8
0
100
AcDbBlockEnd
  0
BLOCK
  5
50
330
4F
100
AcDbEntity
  8
0
100
AcDbBlockBegin
  2
*D6
 70
    1
 10
0
 20
0
  3
*D6
  1

  0
LINE
  5
85
100
AcDbEntity
  8
0
  6
ByBlock
 62
    0
370
   -2
100
AcDbLine
 10
148.2900648979378
 20
122.5014634146343
 11
148.2900648979378
 21
62.50146341463446
  0
SOLID
  5
86
100
AcDbEntity
  8
0
  6
ByBlock
 62
    0
370
   -2
100
AcDbTrace
 10
148.2900648979378
 20
122.5014634146343
 30
0
 11
148.7063495557107
 21
120.0014634146343
 31
0
 12
147.873780240165
 22
120.0014634146343
 32
0
 13
147.873780240165
 23
120.0014634146343
 33
0
  0
SOLID
  5
87
100
AcDbEntity
  8
0
  6
ByBlock
 62
    0
370
   -2
100
AcDbTrace
 10
148.2900648979378
 20
62.50146341463446
 30
0
 11
147.873780240165
 21
65.00146341463446
 31
0
 12
148.7063495557107
 22
65.00146341463446
 32
0
 13
148.7063495557107
 23
65.00146341463446
 33
0
  0
MTEXT
  5
88
100
AcDbEntity
  8
0
  6
CONTINUOUS
 62
    0
370
   -2
100
AcDbMText
 10
146.1650648979378
 20
92.5014634146344
 30
0
 40
3
 41
3.666666666666852
 71
    5
 72
    1
  1
60
  7
standard
210
0
220
0
230
1
 50
90
 73
    2
 44
1
  0
LINE
  5
89
100
AcDbEntity
  8
0
  6
ByBlock
 62
    0
370
   -2
100
AcDbLine
 10
136.4650000000002
 20
122.5014634146343
 11
149.5400648979378
 21
122.5014634146343
  0
LINE
  5
8A
100
AcDbEntity
  8
0
  6
ByBlock
 62
    0
370
   -2
100
AcDbLine
 10
136.4650000000002
 20
62.50146341463446
 11
149.5400648979378
 21
62.50146341463446
  0
ENDBLK
  5
51
330
4F
100
AcDbEntity
  8
0
100
AcDbBlockEnd
  0
BLOCK
  5
53
330
52
100
AcDbEntity
  8
0
100
AcDbBlockBegin
  2
*D12
 70
    1
 10
0
 20
0
  3
*D12
  1

  0
LINE
  5
8B
100
AcDbEntity
  8
0
  6
ByBlock
 62
    0
370
   -2
100
AcDbLine
 10
226.4650000000002
 20
163.7961497035253
 11
237.2855864067438
 21
163.7961497035253
  0
LINE
  5
8C
100
AcDbEntity
  8
0
  6
ByBlock
 62
    0
370
   -2
100
AcDbLine
 10
226.4650000000002
 20
153.7961497035253
 11
237.2855864067438
 21
153.7961497035253
  0
LINE
  5
8D
100
AcDbEntity
  8
0
  6
ByBlock
 62
    0
370
   -2
100
AcDbLine
 10
236.0355864067438
 20
163.7961497035253
 11
236.0355864067438
 21
153.7961497035253
  0
SOLID
  5
8E
100
AcDbEntity
  8
0
  6
ByBlock
 62
    0
370
   -2
100
AcDbTrace
 10
236.0355864067438
 20
163.7961497035253
 30
0
 11
236.4518710645166
 21
161.2961497035253
 31
0
 12
235.6193017489709
 22
161.2961497035253
 32
0
 13
235.6193017489709
 23
161.2961497035253
 33
0
  0
SOLID
  5
8F
100
AcDbEntity
  8
0
  6
ByBlock
 62
    0
370
   -2
100
AcDbTrace
 10
236.0355864067438
 20
153.7961497035253
 30
0
 11
235.6193017489709
 21
156.2961497035253
 31
0
 12
236.4518710645166
 22
156.2961497035253
 32
0
 13
236.4518710645166
 23
156.2961497035253
 33
0
  0
MTEXT
  5
90
100
AcDbEntity
  8
0
  6
CONTINUOUS
 62
    0
370
   -2
100
AcDbMText
 10
233.9105864067438
 20
158.7961497035253
 30
0
 40
3
 41
3
 71
    5
 72
    1
  1
10
  7
standard
210
0
220
0
230
1
 50
90
 73
    2
 44
1
  0
ENDBLK
  5
54
330
52
100
AcDbEntity
  8
0
100
AcDbBlockEnd
  0
BLOCK
  5
56
330
55
100
AcDbEntity
  8
0
100
AcDbBlockBegin
  2
*D2
 70
    1
 10
0
 20
0
  3
*D2
  1

  0
LINE
  5
91
100
AcDbEntity
  8
0
  6
ByBlock
 62
    0
370
   -2
100
AcDbLine
 10
125.6162098503972
 20
173.7961497035253
 11
125.6162098503972
 21
233.7961497035253
  0
SOLID
  5
92
100
AcDbEntity
  8
0
  6
ByBlock
 62
    0
370
   -2
100
AcDbTrace
 10
125.6162098503972
 20
173.7961497035253
 30
0
 11
125.1999251926243
 21
176.2961497035253
 31
0
 12
126.03249450817
 22
176.2961497035253
 32
0
 13
126.03249450817
 23
176.2961497035253
 33
0
  0
SOLID
  5
93
100
AcDbEntity
  8
0
  6
ByBlock
 62
    0
370
   -2
100
AcDbTrace
 10
125.6162098503972
 20
233.7961497035253
 30
0
 11
126.03249450817
 21
231.2961497035253
 31
0
 12
125.1999251926243
 22
231.2961497035253
 32
0
 13
125.1999251926243
 23
231.2961497035253
 33
0
  0
MTEXT
  5
94
100
AcDbEntity
  8
0
  6
CONTINUOUS
 62
    0
370
   -2
100
AcDbMText
 10
123.4912098503972
 20
203.7961497035253
 30
0
 40
3
 41
3.666666666666852
 71
    5
 72
    1
  1
60
  7
standard
210
0
220
0
230
1
 50
90
 73
    2
 44
1
  0
LINE
  5
95
100
AcDbEntity
  8
0
  6
ByBlock
 62
    0
370
   -2
100
AcDbLine
 10
116.4650000000002
 20
173.7961497035253
 11
126.8662098503972
 21
173.7961497035253
  0
LINE
  5
96
100
AcDbEntity
  8
0
  6
ByBlock
 62
    0
370
   -2
100
AcDbLine
 10
116.4650000000002
 20
233.7961497035253
 11
126.8662098503972
 21
233.7961497035253
  0
ENDBLK
  5
57
330
55
100
AcDbEntity
  8
0
100
AcDbBlockEnd
  0
BLOCK
  5
59
330
58
100
AcDbEntity
  8
0
100
AcDbBlockBegin
  2
*D3
 70
    1
 10
0
 20
0
  3
*D3
  1

  0
LINE
  5
97
100
AcDbEntity
  8
0
  6
ByBlock
 62
    0
370
   -2
100
AcDbLine
 10
146.7580476649958
 20
173.7961497035253
 11
146.7580476649958
 21
153.7961497035253
  0
SOLID
  5
98
100
AcDbEntity
  8
0
  6
ByBlock
 62
    0
370
   -2
100
AcDbTrace
 10
146.7580476649958
 20
173.7961497035253
 30
0
 11
147.1743323227686
 21
171.2961497035253
 31
0
 12
146.3417630072229
 22
171.2961497035253
 32
0
 13
146.3417630072229
 23
171.2961497035253
 33
0
  0
SOLID
  5
99
100
AcDbEntity
  8
0
  6
ByBlock
 62
    0
370
   -2
100
AcDbTrace
 10
146.7580476649958
 20
153.7961497035253
 30
0
 11
146.3417630072229
 21
156.2961497035253
 31
0
 12
147.1743323227686
 22
156.2961497035253
 32
0
 13
147.1743323227686
 23
156.2961497035253
 33
0
  0
MTEXT
  5
9A
100
AcDbEntity
  8
0
  6
CONTINUOUS
 62
    0
370
   -2
100
AcDbMText
 10
144.6330476649958
 20
163.7961497035253
 30
0
 40
3
 41
3.666666666666666
 71
    5
 72
    1
  1
20
  7
standard
210
0
220
0
230
1
 50
90
 73
    2
 44
1
  0
LINE
  5
9B
100
AcDbEntity
  8
0
  6
ByBlock
 62
    0
370
   -2
100
AcDbLine
 10
136.4650000000002
 20
173.7961497035253
 11
148.0080476649958
 21
173.7961497035253
  0
LINE
  5
9C
100
AcDbEntity
  8
0
  6
ByBlock
 62
    0
370
   -2
100
AcDbLine
 10
136.4650000000002
 20
153.7961497035253
 11
148.0080476649958
 21
153.7961497035253
  0
ENDBLK
  5
5A
330
58
100
AcDbEntity
  8
0
100
AcDbBlockEnd
  0
BLOCK
  5
5C
330
5B
100
AcDbEntity
  8
0
100
AcDbBlockBegin
  2
*D7
 70
    1
 10
0
 20
0
  3
*D7
  1

  0
LINE
  5
9D
100
AcDbEntity
  8
0
  6
ByBlock
 62
    0
370
   -2
100
AcDbLine
 10
75.84000000000017
 20
61.87646341463446
 11
75.84000000000017
 21
51.59005532596288
  0
LINE
  5
9E
100
AcDbEntity
  8
0
  6
ByBlock
 62
    0
370
   -2
100
AcDbLine
 10
95.84000000000017
 20
61.87646341463446
 11
95.84000000000017
 21
51.59005532596288
  0
LINE
  5
9F
100
AcDbEntity
  8
0
  6
ByBlock
 62
    0
370
   -2
100
AcDbLine
 10
75.84000000000017
 20
52.84005532596288
 11
95.84000000000017
 21
52.84005532596288
  0
SOLID
  5
A0
100
AcDbEntity
  8
0
  6
ByBlock
 62
    0
370
   -2
100
AcDbTrace
 10
75.84000000000017
 20
52.84005532596288
 30
0
 11
78.34000000000017
 21
53.25633998373572
 31
0
 12
78.34000000000017
 22
52.42377066819004
 32
0
 13
78.34000000000017
 23
52.42377066819004
 33
0
  0
SOLID
  5
A1
100
AcDbEntity
  8
0
  6
ByBlock
 62
    0
370
   -2
100
AcDbTrace
 10
95.84000000000017
 20
52.84005532596288
 30
0
 11
93.34000000000017
 21
52.42377066819004
 31
0
 12
93.34000000000017
 22
53.25633998373572
 32
0
 13
93.34000000000017
 23
53.25633998373572
 33
0
  0
MTEXT
  5
A2
100
AcDbEntity
  8
0
  6
CONTINUOUS
 62
    0
370
   -2
100
AcDbMText
 10
85.84000000000017
 20
54.96505532596288
 30
0
 40
3
 41
3.666666666666666
 71
    5
 72
    1
  1
20
  7
standard
210
0
220
0
230
1
 50
0
 73
    2
 44
1
  0
ENDBLK
  5
5D
330
5B
100
AcDbEntity
  8
0
100
AcDbBlockEnd
  0
BLOCK
  5
5F
330
5E
100
AcDbEntity
  8
0
100
AcDbBlockBegin
  2
*D14
 70
    1
 10
0
 20
0
  3
*D14
  1

  0
LINE
  5
A3
100
AcDbEntity
  8
0
  6
ByBlock
 62
    0
370
   -2
100
AcDbLine
 10
235.7512176760522
 20
243.7961497035253
 11
235.7512176760522
 21
223.7961497035253
  0
SOLID
  5
A4
100
AcDbEntity
  8
0
  6
ByBlock
 62
    0
370
   -2
100
AcDbTrace
 10
235.7512176760522
 20
243.7961497035253
 30
0
 11
236.1675023338251
 21
241.2961497035253
 31
0
 12
235.3349330182794
 22
241.2961497035253
 32
0
 13
235.3349330182794
 23
241.2961497035253
 33
0
  0
SOLID
  5
A5
100
AcDbEntity
  8
0
  6
ByBlock
 62
    0
370
   -2
100
AcDbTrace
 10
235.7512176760522
 20
223.7961497035253
 30
0
 11
235.3349330182794
 21
226.2961497035253
 31
0
 12
236.1675023338251
 22
226.2961497035253
 32
0
 13
236.1675023338251
 23
226.2961497035253
 33
0
  0
MTEXT
  5
A6
100
AcDbEntity
  8
0
  6
CONTINUOUS
 62
    0
370
   -2
100
AcDbMText
 10
233.6262176760522
 20
233.7961497035253
 30
0
 40
3
 41
6.666666666666666
 71
    5
 72
    1
  1
%%C20
  7
standard
210
0
220
0
230
1
 50
90
 73
    2
 44
1
  0
LINE
  5
A7
100
AcDbEntity
  8
0
  6
ByBlock
 62
    0
370
   -2
100
AcDbLine
 10
226.4650000000002
 20
243.7961497035253
 11
237.0012176760522
 21
243.7961497035253
  0
LINE
  5
A8
100
AcDbEntity
  8
0
  6
ByBlock
 62
    0
370
   -2
100
AcDbLine
 10
226.4650000000002
 20
223.7961497035253
 11
237.0012176760522
 21
223.7961497035253
  0
ENDBLK
  5
60
330
5E
100
AcDbEntity
  8
0
100
AcDbBlockEnd
  0
BLOCK
  5
62
330
61
100
AcDbEntity
  8
0
100
AcDbBlockBegin
  2
*D1
 70
    1
 10
0
 20
0
  3
*D1
  1

  0
SOLID
  5
A9
100
AcDbEntity
  8
0
  6
ByBlock
 62
    0
370
   -2
100
AcDbTrace
 10
110.3374133800303
 20
251.1130991371845
 30
0
 11
108.5362549439831
 21
249.3300901062054
 31
0
 12
108.0556695860724
 22
250.0099499292205
 32
0
 13
108.0556695860724
 23
250.0099499292205
 33
0
  0
LINE
  5
AA
100
AcDbEntity
  8
0
  6
ByBlock
 62
    0
370
   -2
100
AcDbLine
 10
85.84000000000017
 20
233.7961497035253
 11
110.3374133800303
 21
251.1130991371845
  0
MTEXT
  5
AB
100
AcDbEntity
  8
0
  6
CONTINUOUS
 62
    0
370
   -2
100
AcDbMText
 10
96.86208943846435
 20
244.1898578681071
 30
0
 40
3
 41
6.33333333333352
 71
    5
 72
    1
  1
R30
  7
standard
210
0
220
0
230
1
 50
35.25606612481818
 73
    2
 44
1
  0
ENDBLK
  5
63
330
61
100
AcDbEntity
  8
0
100
AcDbBlockEnd
  0
BLOCK
  5
65
330
64
100
AcDbEntity
  8
0
100
AcDbBlockBegin
  2
*D9
 70
    1
 10
0
 20
0
  3
*D9
  1

  0
LINE
  5
AC
100
AcDbEntity
  8
0
  6
ByBlock
 62
    0
370
   -2
100
AcDbLine
 10
29.4055276216441
 20
122.5014634146343
 11
29.4055276216441
 21
112.5014634146343
  0
SOLID
  5
AD
100
AcDbEntity
  8
0
  6
ByBlock
 62
    0
370
   -2
100
AcDbTrace
 10
29.4055276216441
 20
122.5014634146343
 30
0
 11
29.82181227941694
 21
120.0014634146343
 31
0
 12
28.98924296387126
 22
120.0014634146343
 32
0
 13
28.98924296387126
 23
120.0014634146343
 33
0
  0
SOLID
  5
AE
100
AcDbEntity
  8
0
  6
ByBlock
 62
    0
370
   -2
100
AcDbTrace
 10
29.4055276216441
 20
112.5014634146343
 30
0
 11
28.98924296387126
 21
115.0014634146343
 31
0
 12
29.82181227941694
 22
115.0014634146343
 32
0
 13
29.82181227941694
 23
115.0014634146343
 33
0
  0
MTEXT
  5
AF
100
AcDbEntity
  8
0
  6
CONTINUOUS
 62
    0
370
   -2
100
AcDbMText
 10
27.2805276216441
 20
117.5014634146343
 30
0
 40
3
 41
3
 71
    5
 72
    1
  1
10
  7
standard
210
0
220
0
230
1
 50
90
 73
    2
 44
1
  0
LINE
  5
B0
100
AcDbEntity
  8
0
  6
ByBlock
 62
    0
370
   -2
100
AcDbLine
 10
35.21500000000017
 20
122.5014634146343
 11
28.1555276216441
 21
122.5014634146343
  0
LINE
  5
B1
100
AcDbEntity
  8
0
  6
ByBlock
 62
    0
370
   -2
100
AcDbLine
 10
35.21500000000017
 20
112.5014634146343
 11
28.1555276216441
 21
112.5014634146343
  0
ENDBLK
  5
66
330
64
100
AcDbEntity
  8
0
100
AcDbBlockEnd
  0
BLOCK
  5
68
330
67
100
AcDbEntity
  8
0
100
AcDbBlockBegin
  2
*D5
 70
    1
 10
0
 20
0
  3
*D5
  1

  0
LINE
  5
B2
100
AcDbEntity
  8
0
  6
ByBlock
 62
    0
370
   -2
100
AcDbLine
 10
75.8400082145952
 20
233.783332065894
 11
95.83999178540515
 21
233.8089673411567
  0
SOLID
  5
B3
100
AcDbEntity
  8
0
  6
ByBlock
 62
    0
370
   -2
100
AcDbTrace
 10
75.8400082145952
 20
233.783332065894
 30
0
 11
78.33947258235695
 21
234.2028207911137
 31
0
 12
78.34053973953591
 22
233.37025215949
 32
0
 13
78.34053973953591
 23
233.37025215949
 33
0
  0
SOLID
  5
B4
100
AcDbEntity
  8
0
  6
ByBlock
 62
    0
370
   -2
100
AcDbTrace
 10
95.83999178540515
 20
233.8089673411567
 30
0
 11
93.3405274176434
 21
233.389478615937
 31
0
 12
93.33946026046443
 22
234.2220472475607
 32
0
 13
93.33946026046443
 23
234.2220472475607
 33
0
  0
MTEXT
  5
B5
100
AcDbEntity
  8
0
  6
CONTINUOUS
 62
    0
370
   -2
100
AcDbMText
 10
85.83727625200351
 20
235.9211479579239
 30
0
 40
3
 41
6.666666666666666
 71
    5
 72
    1
  1
%%C20
  7
standard
210
0
220
0
230
1
 50
0.07343967406980659
 73
    2
 44
1
  0
ENDBLK
  5
69
330
67
100
AcDbEntity
  8
0
100
AcDbBlockEnd
  0
BLOCK
  5
6B
330
6A
100
AcDbEntity
  8
0
100
AcDbBlockBegin
  2
*D4
 70
    1
 10
0
 20
0
  3
*D4
  1

  0
LINE
  5
B6
100
AcDbEntity
  8
0
  6
ByBlock
 62
    0
370
   -2
100
AcDbLine
 10
35.84000000000017
 20
134.8301618050159
 11
135.8400000000002
 21
134.8301618050159
  0
SOLID
  5
B7
100
AcDbEntity
  8
0
  6
ByBlock
 62
    0
370
   -2
100
AcDbTrace
 10
35.84000000000017
 20
134.8301618050159
 30
0
 11
38.34000000000017
 21
135.2464464627887
 31
0
 12
38.34000000000017
 22
134.413877147243
 32
0
 13
38.34000000000017
 23
134.413877147243
 33
0
  0
SOLID
  5
B8
100
AcDbEntity
  8
0
  6
ByBlock
 62
    0
370
   -2
100
AcDbTrace
 10
135.8400000000002
 20
134.8301618050159
 30
0
 11
133.3400000000002
 21
134.413877147243
 31
0
 12
133.3400000000002
 22
135.2464464627887
 32
0
 13
133.3400000000002
 23
135.2464464627887
 33
0
  0
MTEXT
  5
B9
100
AcDbEntity
  8
0
  6
CONTINUOUS
 62
    0
370
   -2
100
AcDbMText
 10
85.84000000000017
 20
136.9551618050159
 30
0
 40
3
 41
5.333333333333332
 71
    5
 72
    1
  1
100
  7
standard
210
0
220
0
230
1
 50
0
 73
    2
 44
1
  0
LINE
  5
BA
100
AcDbEntity
  8
0
  6
ByBlock
 62
    0
370
   -2
100
AcDbLine
 10
35.84000000000017
 20
153.1711497035253
 11
35.84000000000017
 21
133.5801618050159
  0
LINE
  5
BB
100
AcDbEntity
  8
0
  6
ByBlock
 62
    0
370
   -2
100
AcDbLine
 10
135.8400000000002
 20
153.1711497035253
 11
135.8400000000002
 21
133.5801618050159
  0
ENDBLK
  5
6C
330
6A
100
AcDbEntity
  8
0
100
AcDbBlockEnd
  0
BLOCK
  5
6E
330
6D
100
AcDbEntity
  8
0
100
AcDbBlockBegin
  2
*D8
 70
    1
 10
0
 20
0
  3
*D8
  1

  0
LINE
  5
BC
100
AcDbEntity
  8
0
  6
ByBlock
 62
    0
370
   -2
100
AcDbLine
 10
45.84000000000017
 20
40.89032090901583
 11
125.8400000000002
 21
40.89032090901583
  0
SOLID
  5
BD
100
AcDbEntity
  8
0
  6
ByBlock
 62
    0
370
   -2
100
AcDbTrace
 10
45.84000000000017
 20
40.89032090901583
 30
0
 11
48.34000000000017
 21
41.30660556678867
 31
0
 12
48.34000000000017
 22
40.47403625124299
 32
0
 13
48.34000000000017
 23
40.47403625124299
 33
0
  0
SOLID
  5
BE
100
AcDbEntity
  8
0
  6
ByBlock
 62
    0
370
   -2
100
AcDbTrace
 10
125.8400000000002
 20
40.89032090901583
 30
0
 11
123.3400000000002
 21
40.47403625124299
 31
0
 12
123.3400000000002
 22
41.30660556678867
 32
0
 13
123.3400000000002
 23
41.30660556678867
 33
0
  0
MTEXT
  5
BF
100
AcDbEntity
  8
0
  6
CONTINUOUS
 62
    0
370
   -2
100
AcDbMText
 10
85.84000000000017
 20
43.01532090901583
 30
0
 40
3
 41
3.666666666666666
 71
    5
 72
    1
  1
80
  7
standard
210
0
220
0
230
1
 50
0
 73
    2
 44
1
  0
LINE
  5
C0
100
AcDbEntity
  8
0
  6
ByBlock
 62
    0
370
   -2
100
AcDbLine
 10
45.84000000000017
 20
61.87646341463446
 11
45.84000000000017
 21
39.64032090901583
  0
LINE
  5
C1
100
AcDbEntity
  8
0
  6
ByBlock
 62
    0
370
   -2
100
AcDbLine
 10
125.8400000000002
 20
61.87646341463446
 11
125.8400000000002
 21
39.64032090901583
  0
ENDBLK
  5
6F
330
6D
100
AcDbEntity
  8
0
100
AcDbBlockEnd
  0
BLOCK
  5
71
330
70
100
AcDbEntity
  8
0
100
AcDbBlockBegin
  2
*D13
 70
    1
 10
0
 20
0
  3
*D13
  1

  0
LINE
  5
C2
100
AcDbEntity
  8
0
  6
ByBlock
 62
    0
370
   -2
100
AcDbLine
 10
236.0355864067438
 20
213.7961497035253
 11
236.0355864067438
 21
173.7961497035253
  0
SOLID
  5
C3
100
AcDbEntity
  8
0
  6
ByBlock
 62
    0
370
   -2
100
AcDbTrace
 10
236.0355864067438
 20
213.7961497035253
 30
0
 11
236.4518710645166
 21
211.2961497035253
 31
0
 12
235.6193017489709
 22
211.2961497035253
 32
0
 13
235.6193017489709
 23
211.2961497035253
 33
0
  0
SOLID
  5
C4
100
AcDbEntity
  8
0
  6
ByBlock
 62
    0
370
   -2
100
AcDbTrace
 10
236.0355864067438
 20
173.7961497035253
 30
0
 11
235.6193017489709
 21
176.2961497035253
 31
0
 12
236.4518710645166
 22
176.2961497035253
 32
0
 13
236.4518710645166
 23
176.2961497035253
 33
0
  0
MTEXT
  5
C5
100
AcDbEntity
  8
0
  6
CONTINUOUS
 62
    0
370
   -2
100
AcDbMText
 10
233.9105864067438
 20
193.7961497035253
 30
0
 40
3
 41
4
 71
    5
 72
    1
  1
40
  7
standard
210
0
220
0
230
1
 50
90
 73
    2
 44
1
  0
LINE
  5
C6
100
AcDbEntity
  8
0
  6
ByBlock
 62
    0
370
   -2
100
AcDbLine
 10
226.4650000000002
 20
213.7961497035253
 11
237.2855864067438
 21
213.7961497035253
  0
LINE
  5
C7
100
AcDbEntity
  8
0
  6
ByBlock
 62
    0
370
   -2
100
AcDbLine
 10
226.4650000000002
 20
173.7961497035253
 11
237.2855864067438
 21
173.7961497035253
  0
ENDBLK
  5
72
330
70
100
AcDbEntity
  8
0
100
AcDbBlockEnd
  0
BLOCK
  5
74
330
73
100
AcDbEntity
  8
0
100
AcDbBlockBegin
  2
*D11
 70
    1
 10
0
 20
0
  3
*D11
  1

  0
LINE
  5
C8
100
AcDbEntity
  8
0
  6
ByBlock
 62
    0
370
   -2
100
AcDbLine
 10
104.9499493206643
 20
183.7961497035253
 11
104.9499493206643
 21
173.7961497035253
  0
SOLID
  5
C9
100
AcDbEntity
  8
0
  6
ByBlock
 62
    0
370
   -2
100
AcDbTrace
 10
104.9499493206643
 20
183.7961497035253
 30
0
 11
105.3662339784371
 21
181.2961497035253
 31
0
 12
104.5336646628914
 22
181.2961497035253
 32
0
 13
104.5336646628914
 23
181.2961497035253
 33
0
  0
SOLID
  5
CA
100
AcDbEntity
  8
0
  6
ByBlock
 62
    0
370
   -2
100
AcDbTrace
 10
104.9499493206643
 20
173.7961497035253
 30
0
 11
104.5336646628914
 21
176.2961497035253
 31
0
 12
105.3662339784371
 22
176.2961497035253
 32
0
 13
105.3662339784371
 23
176.2961497035253
 33
0
  0
MTEXT
  5
CB
100
AcDbEntity
  8
0
  6
CONTINUOUS
 62
    0
370
   -2
100
AcDbMText
 10
102.8249493206643
 20
178.7961497035253
 30
0
 40
3
 41
3
 71
    5
 72
    1
  1
10
  7
standard
210
0
220
0
230
1
 50
90
 73
    2
 44
1
  0
LINE
  5
CC
100
AcDbEntity
  8
0
  6
ByBlock
 62
    0
370
   -2
100
AcDbLine
 10
96.46500000000017
 20
183.7961497035253
 11
106.1999493206643
 21
183.7961497035253
  0
LINE
  5
CD
100
AcDbEntity
  8
0
  6
ByBlock
 62
    0
370
   -2
100
AcDbLine
 10
96.46500000000017
 20
173.7961497035253
 11
106.1999493206643
 21
173.7961497035253
  0
ENDBLK
  5
75
330
73
100
AcDbEntity
  8
0
100
AcDbBlockEnd
  0
BLOCK
  5
77
330
76
100
AcDbEntity
  8
0
100
AcDbBlockBegin
  2
*D16
 70
    1
 10
0
 20
0
  3
*D16
  1

  0
LINE
  5
CE
100
AcDbEntity
  8
0
  6
ByBlock
 62
    0
370
   -2
100
AcDbLine
 10
226.4650000000002
 20
263.7961497035253
 11
252.3571291333876
 21
263.7961497035253
  0
LINE
  5
CF
100
AcDbEntity
  8
0
  6
ByBlock
 62
    0
370
   -2
100
AcDbLine
 10
226.4650000000002
 20
153.7961497035253
 11
252.3571291333876
 21
153.7961497035253
  0
LINE
  5
D0
100
AcDbEntity
  8
0
  6
ByBlock
 62
    0
370
   -2
100
AcDbLine
 10
251.1071291333876
 20
263.7961497035253
 11
251.1071291333876
 21
153.7961497035253
  0
SOLID
  5
D1
100
AcDbEntity
  8
0
  6
ByBlock
 62
    0
370
   -2
100
AcDbTrace
 10
251.1071291333876
 20
263.7961497035253
 30
0
 11
251.5234137911605
 21
261.2961497035253
 31
0
 12
250.6908444756148
 22
261.2961497035253
 32
0
 13
250.6908444756148
 23
261.2961497035253
 33
0
  0
SOLID
  5
D2
100
AcDbEntity
  8
0
  6
ByBlock
 62
    0
370
   -2
100
AcDbTrace
 10
251.1071291333876
 20
153.7961497035253
 30
0
 11
250.6908444756148
 21
156.2961497035253
 31
0
 12
251.5234137911605
 22
156.2961497035253
 32
0
 13
251.5234137911605
 23
156.2961497035253
 33
0
  0
MTEXT
  5
D3
100
AcDbEntity
  8
0
  6
CONTINUOUS
 62
    0
370
   -2
100
AcDbMText
 10
248.9821291333876
 20
208.7961497035253
 30
0
 40
3
 41
4.666666666666666
 71
    5
 72
    1
  1
110
  7
standard
210
0
220
0
230
1
 50
90
 73
    2
 44
1
  0
ENDBLK
  5
78
330
76
100
AcDbEntity
  8
0
100
AcDbBlockEnd
  0
BLOCK
  5
7A
330
79
100
AcDbEntity
  8
0
100
AcDbBlockBegin
  2
*D10
 70
    1
 10
0
 20
0
  3
*D10
  1

  0
LINE
  5
D4
100
AcDbEntity
  8
0
  6
ByBlock
 62
    0
370
   -2
100
AcDbLine
 10
104.9499493206643
 20
92.50146341463446
 11
104.9499493206643
 21
62.50146341463446
  0
SOLID
  5
D5
100
AcDbEntity
  8
0
  6
ByBlock
 62
    0
370
   -2
100
AcDbTrace
 10
104.9499493206643
 20
92.50146341463446
 30
0
 11
105.3662339784371
 21
90.00146341463446
 31
0
 12
104.5336646628914
 22
90.00146341463446
 32
0
 13
104.5336646628914
 23
90.00146341463446
 33
0
  0
SOLID
  5
D6
100
AcDbEntity
  8
0
  6
ByBlock
 62
    0
370
   -2
100
AcDbTrace
 10
104.9499493206643
 20
62.50146341463446
 30
0
 11
104.5336646628914
 21
65.00146341463446
 31
0
 12
105.3662339784371
 22
65.00146341463446
 32
0
 13
105.3662339784371
 23
65.00146341463446
 33
0
  0
MTEXT
  5
D7
100
AcDbEntity
  8
0
  6
CONTINUOUS
 62
    0
370
   -2
100
AcDbMText
 10
102.8249493206643
 20
77.50146341463446
 30
0
 40
3
 41
3.666666666666852
 71
    5
 72
    1
  1
30
  7
standard
210
0
220
0
230
1
 50
90
 73
    2
 44
1
  0
LINE
  5
D8
100
AcDbEntity
  8
0
  6
ByBlock
 62
    0
370
   -2
100
AcDbLine
 10
96.46500000000017
 20
92.50146341463446
 11
106.1999493206643
 21
92.50146341463446
  0
LINE
  5
D9
100
AcDbEntity
  8
0
  6
ByBlock
 62
    0
370
   -2
100
AcDbLine
 10
96.46500000000017
 20
62.50146341463446
 11
106.1999493206643
 21
62.50146341463446
  0
ENDBLK
  5
7B
330
79
100
AcDbEntity
  8
0
100
AcDbBlockEnd
  0
BLOCK
  5
7D
330
7C
100
AcDbEntity
  8
0
100
AcDbBlockBegin
  2
*D15
 70
    1
 10
0
 20
0
  3
*D15
  1

  0
LINE
  5
DA
100
AcDbEntity
  8
0
  6
ByBlock
 62
    0
370
   -2
100
AcDbLine
 10
226.4650000000002
 20
263.7961497035253
 11
248.6603356343997
 21
263.7961497035253
  0
LINE
  5
DB
100
AcDbEntity
  8
0
  6
ByBlock
 62
    0
370
   -2
100
AcDbLine
 10
226.4650000000002
 20
233.7961497035253
 11
248.6603356343997
 21
233.7961497035253
  0
LINE
  5
DC
100
AcDbEntity
  8
0
  6
ByBlock
 62
    0
370
   -2
100
AcDbLine
 10
247.4103356343997
 20
263.7961497035253
 11
247.4103356343997
 21
233.7961497035253
  0
SOLID
  5
DD
100
AcDbEntity
  8
0
  6
ByBlock
 62
    0
370
   -2
100
AcDbTrace
 10
247.4103356343997
 20
263.7961497035253
 30
0
 11
247.8266202921725
 21
261.2961497035253
 31
0
 12
246.9940509766268
 22
261.2961497035253
 32
0
 13
246.9940509766268
 23
261.2961497035253
 33
0
  0
SOLID
  5
DE
100
AcDbEntity
  8
0
  6
ByBlock
 62
    0
370
   -2
100
AcDbTrace
 10
247.4103356343997
 20
233.7961497035253
 30
0
 11
246.9940509766268
 21
236.2961497035253
 31
0
 12
247.8266202921725
 22
236.2961497035253
 32
0
 13
247.8266202921725
 23
236.2961497035253
 33
0
  0
MTEXT
  5
DF
100
AcDbEntity
  8
0
  6
CONTINUOUS
 62
    0
370
   -2
100
AcDbMText
 10
245.2853356343997
 20
248.7961497035253
 30
0
 40
3
 41
6.33333333333352
 71
    5
 72
    1
  1
R30
  7
standard
210
0
220
0
230
1
 50
90
 73
    2
 44
1
  0
ENDBLK
  5
7E
330
7C
100
AcDbEntity
  8
0
100
AcDbBlockEnd
  0
BLOCK
  5
80
330
7F
100
AcDbEntity
  8
0
100
AcDbBlockBegin
  2
a3
 70
    0
 10
0
 20
0
  3
a3
  1

  0
ENDBLK
  5
81
330
7F
100
AcDbEntity
  8
0
100
AcDbBlockEnd
  0
BLOCK
  5
83
330
82
100
AcDbEntity
  8
0
100
AcDbBlockBegin
  2
a3-0
 70
    0
 10
0
 20
0
  3
a3-0
  1

  0
ENDBLK
  5
84
330
82
100
AcDbEntity
  8
0
100
AcDbBlockEnd
  0
ENDSEC
  0
SECTION
  2
ENTITIES
  0
LWPOLYLINE
  5
E0
100
AcDbEntity
  8
0
  6
ByLayer
 62
  256
370
   -1
100
AcDbPolyline
 90
    4
 70
    1
 43
0
 10
420.0000076596014
 20
-7.65960129456289e-006
 10
420.0000076596014
 20
296.9999923403987
 10
7.659601322984599e-006
 20
296.9999923403987
 10
7.65960129456289e-006
 20
-7.65960129456289e-006
  0
LWPOLYLINE
  5
E1
100
AcDbEntity
  8
0
  6
ByLayer
 62
  256
370
   -1
100
AcDbPolyline
 90
    4
 70
    1
 43
0
 10
415.0000075085702
 20
19.9999922962657
 10
415.0000075085702
 20
291.9999922962657
 10
5.000007508570235
 20
291.9999922962657
 10
5.000007508570206
 20
19.9999922962657
  0
LWPOLYLINE
  5
E2
100
AcDbEntity
  8
dash
  6
CONTINUOUS
 62
  256
370
   70
100
AcDbPolyline
 90
    4
 70
    1
 43
0
 10
415.0000075085702
 20
19.9999922962657
 10
230.0000075085702
 20
19.9999922962657
 10
230.0000075085702
 20
74.9999922962657
 10
415.0000075085702
 20
74.9999922962657
  0
LINE
  5
E3
100
AcDbEntity
  8
0
  6
ByLayer
 62
  256
370
   -1
100
AcDbLine
 10
415.0000075085701
 20
74.9999922962657
 11
415.0000075085701
 21
19.9999922962657
  0
LINE
  5
E4
100
AcDbEntity
  8
0
  6
ByLayer
 62
  256
370
   -1
100
AcDbLine
 10
415.0000075085701
 20
19.9999922962657
 11
415.0000075085701
 21
74.9999922962657
  0
LINE
  5
E5
100
AcDbEntity
  8
0
  6
ByLayer
 62
  256
370
   70
100
AcDbLine
 10
247.0000075085702
 20
19.9999922962657
 11
247.0000075085702
 21
74.9999922962657
  0
LINE
  5
E6
100
AcDbEntity
  8
0
  6
ByLayer
 62
  256
370
   70
100
AcDbLine
 10
270.0000075085702
 20
19.99999229626569
 11
270.0000075085702
 21
74.9999922962657
  0
LINE
  5
E7
100
AcDbEntity
  8
0
  6
ByLayer
 62
  256
370
   70
100
AcDbLine
 10
285.0000075085702
 20
19.99999229626569
 11
285.0000075085702
 21
74.9999922962657
  0
LINE
  5
E8
100
AcDbEntity
  8
0
  6
ByLayer
 62
  256
370
   70
100
AcDbLine
 10
295.0000075085702
 20
19.99999229626568
 11
295.0000075085702
 21
74.9999922962657
  0
LINE
  5
E9
100
AcDbEntity
  8
0
  6
ByLayer
 62
  256
370
   70
100
AcDbLine
 10
230.0000075085702
 20
54.9999922962657
 11
295.0000075085702
 21
54.9999922962657
  0
LINE
  5
EA
100
AcDbEntity
  8
0
  6
ByLayer
 62
  256
370
   70
100
AcDbLine
 10
230.0000075085702
 20
49.9999922962657
 11
295.0000075085702
 21
49.9999922962657
  0
LINE
  5
EB
100
AcDbEntity
  8
0
  6
ByLayer
 62
  256
370
   70
100
AcDbLine
 10
237.0000075085702
 20
49.9999922962657
 11
237.0000075085702
 21
74.9999922962657
  0
LINE
  5
EC
100
AcDbEntity
  8
0
  6
ByLayer
 62
  256
370
   70
100
AcDbLine
 10
365.0000075085702
 20
54.9999922962657
 11
415.0000075085702
 21
54.9999922962657
  0
LINE
  5
ED
100
AcDbEntity
  8
0
  6
ByLayer
 62
  256
370
   70
100
AcDbLine
 10
365.0000075085702
 20
39.9999922962657
 11
415.0000075085702
 21
39.9999922962657
  0
LINE
  5
EE
100
AcDbEntity
  8
0
  6
ByLayer
 62
  256
370
   70
100
AcDbLine
 10
385.0000075085701
 20
34.9999922962657
 11
385.0000075085701
 21
39.9999922962657
  0
LINE
  5
EF
100
AcDbEntity
  8
0
  6
ByLayer
 62
  256
370
   70
100
AcDbLine
 10
380.0000075085702
 20
39.9999922962657
 11
380.0000075085702
 21
59.9999922962657
  0
LINE
  5
F0
100
AcDbEntity
  8
0
  6
ByLayer
 62
  256
370
   70
100
AcDbLine
 10
397.0000075085703
 20
39.9999922962657
 11
397.0000075085703
 21
59.9999922962657
  0
LINE
  5
F1
100
AcDbEntity
  8
0
  6
ByLayer
 62
  256
370
   70
100
AcDbLine
 10
295.0000075085702
 20
59.9999922962657
 11
415.0000075085703
 21
59.9999922962657
  0
LINE
  5
F2
100
AcDbEntity
  8
0
  6
ByLayer
 62
  256
370
   70
100
AcDbLine
 10
295.0000075085702
 20
34.9999922962657
 11
415.0000075085703
 21
34.9999922962657
  0
LINE
  5
F3
100
AcDbEntity
  8
dash
  6
CONTINUOUS
 62
  256
370
   25
100
AcDbLine
 10
230.0000075085702
 20
69.9999922962657
 11
295.0000075085702
 21
69.9999922962657
  0
LINE
  5
F4
100
AcDbEntity
  8
dash
  6
CONTINUOUS
 62
  256
370
   25
100
AcDbLine
 10
230.0000075085702
 20
64.9999922962657
 11
295.0000075085702
 21
64.9999922962657
  0
LINE
  5
F5
100
AcDbEntity
  8
0
  6
ByLayer
 62
  256
370
   25
100
AcDbLine
 10
230.0000075085702
 20
44.9999922962657
 11
295.0000075085702
 21
44.9999922962657
  0
LINE
  5
F6
100
AcDbEntity
  8
0
  6
ByLayer
 62
  256
370
   25
100
AcDbLine
 10
230.0000075085702
 20
39.9999922962657
 11
295.0000075085702
 21
39.9999922962657
  0
LINE
  5
F7
100
AcDbEntity
  8
0
  6
ByLayer
 62
  256
370
   25
100
AcDbLine
 10
230.0000075085702
 20
29.9999922962657
 11
295.0000075085702
 21
29.9999922962657
  0
LINE
  5
F8
100
AcDbEntity
  8
0
  6
ByLayer
 62
  256
370
   25
100
AcDbLine
 10
230.0000075085702
 20
24.9999922962657
 11
295.0000075085702
 21
24.9999922962657
  0
LINE
  5
F9
100
AcDbEntity
  8
0
  6
ByLayer
 62
  256
370
   25
100
AcDbLine
 10
230.0000075085702
 20
59.9999922962657
 11
295.0000075085702
 21
59.9999922962657
  0
LINE
  5
FA
100
AcDbEntity
  8
0
  6
ByLayer
 62
  256
370
   25
100
AcDbLine
 10
230.0000075085702
 20
34.9999922962657
 11
295.0000075085702
 21
34.9999922962657
  0
LINE
  5
FB
100
AcDbEntity
  8
0
  6
ByLayer
 62
  256
370
   70
100
AcDbLine
 10
365.0000075085702
 20
19.99999229626567
 11
365.0000075085702
 21
59.9999922962657
  0
MTEXT
  5
FC
100
AcDbEntity
  8
0
  6
ByLayer
 62
  256
370
   -1
100
AcDbMText
 10
372.5948920040929
 20
55.92079278442732
 30
0
 40
2
 41
8.777777777777871
 71
    5
 72
    1
  1
Лiтера\P
  7
cyrillic_ii
210
0
220
0
230
1
 50
0
 73
    2
 44
1
  0
MTEXT
  5
FD
100
AcDbEntity
  8
0
  6
ByLayer
 62
  256
370
   -1
100
AcDbMText
 10
388.4843268781003
 20
55.92079278442732
 30
0
 40
2
 41
6.444444444444444
 71
    5
 72
    1
  1
Маса\P
  7
cyrillic_ii
210
0
220
0
230
1
 50
0
 73
    2
 44
1
  0
MTEXT
  5
FE
100
AcDbEntity
  8
0
  6
ByLayer
 62
  256
370
   -1
100
AcDbMText
 10
406.1150696835059
 20
57.44443722440064
 30
0
 40
2
 41
12.00000000000009
 71
    5
 72
    1
  1
Масштаб
  7
cyrillic_ii
210
0
220
0
230
1
 50
0
 73
    2
 44
1
  0
MTEXT
  5
FF
100
AcDbEntity
  8
0
  6
ByLayer
 62
  256
370
   -1
100
AcDbMText
 10
398.7145109750641
 20
37.63705950474747
 30
0
 40
2
 41
15.88888888888889
 71
    5
 72
    1
  1
Аркушiв - 1
  7
cyrillic_ii
210
0
220
0
230
1
 50
0
 73
    2
 44
1
  0
MTEXT
  5
100
100
AcDbEntity
  8
0
  6
ByLayer
 62
  256
370
   -1
100
AcDbMText
 10
241.9967971492368
 20
52.65584041305592
 30
0
 40
2
 41
4.444444444444445
 71
    5
 72
    1
  1
Арк
  7
cyrillic_ii
210
0
220
0
230
1
 50
0
 73
    2
 44
1
  0
MTEXT
  5
101
100
AcDbEntity
  8
0
  6
ByLayer
 62
  256
370
   -1
100
AcDbMText
 10
233.4034425077873
 20
52.3336984457473
 30
0
 40
2
 41
3.508666666666667
 71
    5
 72
    1
  1
Зм.
  7
cyrillic_ii
210
0
220
0
230
1
 50
0
 73
    2
 44
1
  0
MTEXT
  5
102
100
AcDbEntity
  8
0
  6
ByLayer
 62
  256
370
   -1
100
AcDbMText
 10
258.7568859889434
 20
52.61230771477099
 30
0
 40
2
 41
13.5
 71
    5
 72
    1
  1
No. докум.
  7
cyrillic_ii
210
0
220
0
230
1
 50
0
 73
    2
 44
1
  0
MTEXT
  5
103
100
AcDbEntity
  8
0
  6
ByLayer
 62
  256
370
   -1
100
AcDbMText
 10
277.9809255515783
 20
52.47300308025914
 30
0
 40
2
 41
7.777777777777871
 71
    5
 72
    1
  1
Пiдпис
  7
cyrillic_ii
210
0
220
0
230
1
 50
0
 73
    2
 44
1
  0
MTEXT
  5
104
100
AcDbEntity
  8
0
  6
ByLayer
 62
  256
370
   -1
100
AcDbMText
 10
290.2397333886207
 20
52.61230771477099
 30
0
 40
2
 41
7.111111111111203
 71
    5
 72
    1
  1
Дата
  7
cyrillic_ii
210
0
220
0
230
1
 50
0
 73
    2
 44
1
  0
MTEXT
  5
105
100
AcDbEntity
  8
0
  6
ByLayer
 62
  256
370
   -1
100
AcDbMText
 10
256.6673164712657
 20
42.4430693954062
 30
0
 40
2
 41
15.22222222222222
 71
    5
 72
    1
  1
Кухарський
  7
cyrillic_ii
210
0
220
0
230
1
 50
0
 73
    2
 44
1
  0
MTEXT
  5
106
100
AcDbEntity
  8
0
  6
ByLayer
 62
  256
370
   -1
100
AcDbMText
 10
372.4986534517657
 20
47.47221552604286
 30
0
 40
4
 41
2.222222222222222
 71
    5
 72
    1
  1
Н
  7
cyrillic_ii
210
0
220
0
230
1
 50
0
 73
    2
 44
1
  0
MTEXT
  5
107
100
AcDbEntity
  8
0
  6
ByLayer
 62
  256
370
   -1
100
AcDbMText
 10
390.6610475411306
 20
27.38350691204844
 30
0
 40
3
 41
45.41666666666666
 71
    5
 72
    1
  1
ЛНУ iм. Iвана Франка
  7
cyrillic_ii
210
0
220
0
230
1
 50
0
 73
    2
 44
1
  0
MTEXT
  5
108
100
AcDbEntity
  8
0
  6
ByLayer
 62
  256
370
   -1
100
AcDbMText
 10
353.7384406597355
 20
67.35897673623143
 30
0
 40
5
 41
97.50000000000075
 71
    5
 72
    1
  1
ЛАБОРАТОРНА РОБОТА No4
  7
cyrillic_ii
210
0
220
0
230
1
 50
0
 73
    2
 44
1
  0
MTEXT
  5
109
100
AcDbEntity
  8
0
  6
ByLayer
 62
  256
370
   -1
100
AcDbMText
 10
237.4737658370707
 20
47.25155865902398
 30
0
 40
2
 41
12
 71
    5
 72
    1
  1
Розробив
  7
cyrillic_ii
210
0
220
0
230
1
 50
0
 73
    2
 44
1
  0
MTEXT
  5
10A
100
AcDbEntity
  8
0
  6
ByLayer
 62
  256
370
   -1
100
AcDbMText
 10
237.6728491843698
 20
42.0753916292478
 30
0
 40
2
 41
12.66666666666666
 71
    5
 72
    1
  1
Перевiрив
  7
cyrillic_ii
210
0
220
0
230
1
 50
0
 73
    2
 44
1
  0
MTEXT
  5
10B
100
AcDbEntity
  8
0
  6
ByLayer
 62
  256
370
   -1
100
AcDbMText
 10
328.0566888581537
 20
27.74139062371378
 30
0
 40
4
 41
29.66666666666685
 71
    5
 72
    1
  1
Варiант 18
  7
cyrillic_ii
210
0
220
0
230
1
 50
0
 73
    2
 44
1
  0
MTEXT
  5
10C
100
AcDbEntity
  8
0
  6
ByLayer
 62
  256
370
   -1
100
AcDbMText
 10
330.0475223311445
 20
47.64972535362215
 30
0
 40
4
 41
17.33333333333352
 71
    5
 72
    1
  1
Корпус
  7
cyrillic_ii
210
0
220
0
230
1
 50
0
 73
    2
 44
1
  0
MTEXT
  5
10D
100
AcDbEntity
  8
0
  6
ByLayer
 62
  256
370
   -1
100
AcDbMText
 10
405.254243902441
 20
47.55356097560999
 30
0
 40
4
 41
5.333333333333333
 71
    5
 72
    1
  1
2:1
  7
cyrillic_ii
210
0
220
0
230
1
 50
0
 73
    2
 44
1
  0
LINE
  5
10E
100
AcDbEntity
  8
0
  6
ByLayer
 62
  256
370
   70
100
AcDbLine
 10
35.84000000000017
 20
153.7961497035253
 11
45.84000000000017
 21
153.7961497035253
  0
LINE
  5
10F
100
AcDbEntity
  8
0
  6
ByLayer
 62
  256
370
   70
100
AcDbLine
 10
45.84000000000017
 20
153.7961497035253
 11
45.84000000000017
 21
163.7961497035253
  0
LINE
  5
110
100
AcDbEntity
  8
0
  6
ByLayer
 62
  256
370
   70
100
AcDbLine
 10
45.84000000000017
 20
163.7961497035253
 11
125.8400000000002
 21
163.7961497035253
  0
LINE
  5
111
100
AcDbEntity
  8
0
  6
ByLayer
 62
  256
370
   70
100
AcDbLine
 10
125.8400000000002
 20
163.7961497035253
 11
125.8400000000002
 21
153.7961497035253
  0
LINE
  5
112
100
AcDbEntity
  8
0
  6
ByLayer
 62
  256
370
   70
100
AcDbLine
 10
125.8400000000002
 20
153.7961497035253
 11
135.8400000000002
 21
153.7961497035253
  0
LINE
  5
113
100
AcDbEntity
  8
0
  6
ByLayer
 62
  256
370
   70
100
AcDbLine
 10
135.8400000000002
 20
153.7961497035253
 11
135.8400000000002
 21
173.7961497035253
  0
LINE
  5
114
100
AcDbEntity
  8
0
  6
ByLayer
 62
  256
370
   70
100
AcDbLine
 10
135.8400000000002
 20
173.7961497035253
 11
95.84000000000017
 21
173.7961497035253
  0
LINE
  5
115
100
AcDbEntity
  8
0
  6
ByLayer
 62
  256
370
   70
100
AcDbLine
 10
95.84000000000017
 20
173.7961497035253
 11
95.84000000000017
 21
183.7961497035253
  0
LINE
  5
116
100
AcDbEntity
  8
0
  6
ByLayer
 62
  256
370
   70
100
AcDbLine
 10
95.84000000000017
 20
183.7961497035253
 11
75.84000000000017
 21
183.7961497035253
  0
LINE
  5
117
100
AcDbEntity
  8
0
  6
ByLayer
 62
  256
370
   70
100
AcDbLine
 10
75.84000000000017
 20
183.7961497035253
 11
75.84000000000017
 21
173.7961497035253
  0
LINE
  5
118
100
AcDbEntity
  8
0
  6
ByLayer
 62
  256
370
   70
100
AcDbLine
 10
75.84000000000017
 20
173.7961497035253
 11
35.84000000000017
 21
173.7961497035253
  0
LINE
  5
119
100
AcDbEntity
  8
0
  6
ByLayer
 62
  256
370
   70
100
AcDbLine
 10
35.84000000000017
 20
173.7961497035253
 11
35.84000000000017
 21
153.7961497035253
  0
LINE
  5
11A
100
AcDbEntity
  8
0
  6
ByLayer
 62
  256
370
   70
100
AcDbLine
 10
35.84000000000017
 20
173.7961497035253
 11
55.84000000000017
 21
213.7961497035253
  0
LINE
  5
11B
100
AcDbEntity
  8
0
  6
ByLayer
 62
  256
370
   70
100
AcDbLine
 10
55.84000000000017
 20
173.7961497035253
 11
55.84000000000017
 21
233.7961497035253
  0
LINE
  5
11C
100
AcDbEntity
  8
0
  6
ByLayer
 62
  256
370
   70
100
AcDbLine
 10
115.8400000000002
 20
233.7961497035253
 11
115.8400000000002
 21
173.7961497035253
  0
CIRCLE
  5
11D
100
AcDbEntity
  8
0
  6
ByLayer
 62
  256
370
   70
100
AcDbCircle
 10
85.84000000000017
 20
233.7961497035253
 40
10
  0
ARC
  5
11E
100
AcDbEntity
  8
0
  6
ByLayer
 62
  256
370
   70
100
AcDbCircle
 10
85.84000000000017
 20
233.7961497035253
 40
30
100
AcDbArc
 50
0
 51
180
  0
DIMENSION
  5
11F
100
AcDbEntity
  8
0
  6
ByLayer
 62
  256
370
   -1
100
AcDbDimension
  2
*D1
 10
85.84000000000017
 20
233.7961497035253
 30
0
 11
96.86208943846435
 21
244.1898578681071
 31
0
 70
   36
  1
R30
 71
    5
 72
    0
  3
Standard
 53
0
210
0
220
0
230
1
100
AcDbRadialDimension
 15
110.3374133800303
 25
251.1130991371845
 35
0
 40
0
  0
DIMENSION
  5
120
100
AcDbEntity
  8
0
  6
ByLayer
 62
  256
370
   -1
100
AcDbDimension
  2
*D2
 10
125.6162098503972
 20
233.7961497035253
 30
0
 11
123.4912098503972
 21
203.7961497035253
 31
0
 70
   32
 71
    5
 72
    0
  3
Standard
 53
0
210
0
220
0
230
1
100
AcDbAlignedDimension
 13
115.8400000000002
 23
173.7961497035253
 33
0
 14
115.8400000000002
 24
233.7961497035253
 34
0
 50
90
100
AcDbRotatedDimension
  0
DIMENSION
  5
121
100
AcDbEntity
  8
0
  6
ByLayer
 62
  256
370
   -1
100
AcDbDimension
  2
*D3
 10
146.7580476649958
 20
153.7961497035253
 30
0
 11
144.6330476649958
 21
163.7961497035253
 31
0
 70
   32
 71
    5
 72
    0
  3
Standard
 53
0
210
0
220
0
230
1
100
AcDbAlignedDimension
 13
135.8400000000002
 23
173.7961497035253
 33
0
 14
135.8400000000002
 24
153.7961497035253
 34
0
 50
90
100
AcDbRotatedDimension
  0
LINE
  5
122
100
AcDbEntity
  8
0
  6
DASHDOT2
 62
  256
370
   25
100
AcDbLine
 10
85.84000000000017
 20
73.79614970352529
 11
85.84000000000017
 21
123.7961497035253
  0
LINE
  5
123
100
AcDbEntity
  8
0
  6
DASHDOT2
 62
  256
370
   25
100
AcDbLine
 10
85.84000000000017
 20
213.7961497035253
 11
85.84000000000017
 21
253.7961497035254
  0
LINE
  5
124
100
AcDbEntity
  8
0
  6
DASHDOT2
 62
  256
370
   25
100
AcDbLine
 10
65.83999999999995
 20
233.7961497035253
 11
105.8400000000004
 21
233.7961497035253
  0
DIMENSION
  5
125
100
AcDbEntity
  8
0
  6
ByLayer
 62
  256
370
   -1
100
AcDbDimension
  2
*D4
 10
135.8400000000002
 20
134.8301618050159
 30
0
 11
85.84000000000017
 21
136.9551618050159
 31
0
 70
   32
 71
    5
 72
    0
  3
Standard
 53
0
210
0
220
0
230
1
100
AcDbAlignedDimension
 13
35.84000000000017
 23
153.7961497035253
 33
0
 14
135.8400000000002
 24
153.7961497035253
 34
0
100
AcDbRotatedDimension
  0
DIMENSION
  5
126
100
AcDbEntity
  8
0
  6
ByLayer
 62
  256
370
   -1
100
AcDbDimension
  2
*D5
 10
75.8400082145952
 20
233.783332065894
 30
0
 11
85.83727625200351
 21
235.9211479579239
 31
0
 70
   35
  1
%%C<>
 71
    5
 72
    0
  3
Standard
 53
0
210
0
220
0
230
1
100
AcDbDiametricDimension
 15
95.83999178540515
 25
233.8089673411567
 35
0
 40
0
  0
LWPOLYLINE
  5
127
100
AcDbEntity
  8
0
  6
ByLayer
 62
  256
370
   70
100
AcDbPolyline
 90
    4
 70
    1
 43
0
 10
35.84000000000017
 20
122.5014634146343
 10
135.8400000000002
 20
122.5014634146343
 10
135.8400000000002
 20
62.50146341463446
 10
35.84000000000017
 20
62.50146341463446
  0
LWPOLYLINE
  5
128
100
AcDbEntity
  8
0
  6
ByLayer
 62
  256
370
   70
100
AcDbPolyline
 90
    4
 70
    1
 43
0
 10
35.84000000000017
 20
122.5014634146343
 10
55.84000000000017
 20
122.5014634146343
 10
55.84000000000017
 20
112.5014634146343
 10
35.84000000000017
 20
112.5014634146343
  0
LWPOLYLINE
  5
129
100
AcDbEntity
  8
0
  6
ByLayer
 62
  256
370
   70
100
AcDbPolyline
 90
    4
 70
    1
 43
0
 10
55.84000000000017
 20
122.5014634146343
 10
115.8400000000002
 20
122.5014634146343
 10
115.8400000000002
 20
92.50146341463446
 10
55.84000000000017
 20
92.50146341463446
  0
LWPOLYLINE
  5
12A
100
AcDbEntity
  8
0
  6
ByLayer
 62
  256
370
   70
100
AcDbPolyline
 90
    4
 70
    1
 43
0
 10
75.84000000000017
 20
62.50146341463446
 10
95.84000000000017
 20
62.50146341463446
 10
95.84000000000017
 20
92.50146341463446
 10
75.84000000000017
 20
92.50146341463446
  0
LINE
  5
12B
100
AcDbEntity
  8
0
  6
DASHED2
 62
  256
370
   70
100
AcDbLine
 10
45.84000000000017
 20
122.5014634146343
 11
45.84000000000017
 21
62.50146341463446
  0
LINE
  5
12C
100
AcDbEntity
  8
0
  6
DASHED2
 62
  256
370
   70
100
AcDbLine
 10
125.8400000000002
 20
122.5014634146343
 11
125.8400000000002
 21
62.50146341463446
  0
LINE
  5
12D
100
AcDbEntity
  8
0
  6
DASHED2
 62
  256
370
   70
100
AcDbLine
 10
75.84000000000017
 20
92.50146341463446
 11
75.84000000000017
 21
122.5014634146343
  0
LINE
  5
12E
100
AcDbEntity
  8
0
  6
DASHED2
 62
  256
370
   70
100
AcDbLine
 10
95.84000000000017
 20
122.5014634146343
 11
95.84000000000017
 21
92.50146341463446
  0
DIMENSION
  5
12F
100
AcDbEntity
  8
0
  6
ByLayer
 62
  256
370
   -1
100
AcDbDimension
  2
*D6
 10
148.2900648979378
 20
62.50146341463446
 30
0
 11
146.1650648979378
 21
92.5014634146344
 31
0
 70
   32
 71
    5
 72
    0
  3
Standard
 53
0
210
0
220
0
230
1
100
AcDbAlignedDimension
 13
135.8400000000002
 23
122.5014634146343
 33
0
 14
135.8400000000002
 24
62.50146341463446
 34
0
 50
90
100
AcDbRotatedDimension
  0
LINE
  5
130
100
AcDbEntity
  8
0
  6
ByLayer
 62
  256
370
   -1
100
AcDbLine
 10
55.84000000000017
 20
92.50146341463446
 11
115.8400000000002
 21
92.50146341463446
  0
DIMENSION
  5
131
100
AcDbEntity
  8
0
  6
ByLayer
 62
  256
370
   -1
100
AcDbDimension
  2
*D7
 10
95.84000000000017
 20
52.84005532596288
 30
0
 11
85.84000000000017
 21
54.96505532596288
 31
0
 70
   33
 71
    5
 72
    0
  3
Standard
 53
0
210
0
220
0
230
1
100
AcDbAlignedDimension
 13
75.84000000000017
 23
62.50146341463446
 33
0
 14
95.84000000000017
 24
62.50146341463446
 34
0
  0
DIMENSION
  5
132
100
AcDbEntity
  8
0
  6
ByLayer
 62
  256
370
   -1
100
AcDbDimension
  2
*D8
 10
125.8400000000002
 20
40.89032090901583
 30
0
 11
85.84000000000017
 21
43.01532090901583
 31
0
 70
   32
 71
    5
 72
    0
  3
Standard
 53
0
210
0
220
0
230
1
100
AcDbAlignedDimension
 13
45.84000000000017
 23
62.50146341463446
 33
0
 14
125.8400000000002
 24
62.50146341463446
 34
0
100
AcDbRotatedDimension
  0
DIMENSION
  5
133
100
AcDbEntity
  8
0
  6
ByLayer
 62
  256
370
   -1
100
AcDbDimension
  2
*D9
 10
29.4055276216441
 20
112.5014634146343
 30
0
 11
27.2805276216441
 21
117.5014634146343
 31
0
 70
   32
 71
    5
 72
    0
  3
Standard
 53
0
210
0
220
0
230
1
100
AcDbAlignedDimension
 13
35.84000000000017
 23
122.5014634146343
 33
0
 14
35.84000000000017
 24
112.5014634146343
 34
0
 50
90
100
AcDbRotatedDimension
  0
DIMENSION
  5
134
100
AcDbEntity
  8
0
  6
ByLayer
 62
  256
370
   -1
100
AcDbDimension
  2
*D10
 10
104.9499493206643
 20
62.50146341463446
 30
0
 11
102.8249493206643
 21
77.50146341463446
 31
0
 70
   32
 71
    5
 72
    0
  3
Standard
 53
0
210
0
220
0
230
1
100
AcDbAlignedDimension
 13
95.84000000000017
 23
92.50146341463446
 33
0
 14
95.84000000000017
 24
62.50146341463446
 34
0
 50
90
100
AcDbRotatedDimension
  0
DIMENSION
  5
135
100
AcDbEntity
  8
0
  6
ByLayer
 62
  256
370
   -1
100
AcDbDimension
  2
*D11
 10
104.9499493206643
 20
173.7961497035253
 30
0
 11
102.8249493206643
 21
178.7961497035253
 31
0
 70
   32
 71
    5
 72
    0
  3
Standard
 53
0
210
0
220
0
230
1
100
AcDbAlignedDimension
 13
95.84000000000017
 23
183.7961497035253
 33
0
 14
95.84000000000017
 24
173.7961497035253
 34
0
 50
90
100
AcDbRotatedDimension
  0
LWPOLYLINE
  5
136
100
AcDbEntity
  8
0
  6
ByLayer
 62
  256
370
   70
100
AcDbPolyline
 90
    4
 70
    1
 43
0
 10
165.8400000000002
 20
153.7961497035253
 10
225.8400000000002
 20
153.7961497035253
 10
225.8400000000002
 20
173.7961497035253
 10
165.8400000000002
 20
173.7961497035253
  0
LWPOLYLINE
  5
137
100
AcDbEntity
  8
0
  6
ByLayer
 62
  256
370
   70
100
AcDbPolyline
 90
    4
 70
    1
 43
0
 10
225.8400000000002
 20
173.7961497035253
 10
195.8400000000002
 20
173.7961497035253
 10
195.8400000000002
 20
263.7961497035253
 10
225.8400000000002
 20
263.7961497035253
  0
LWPOLYLINE
  5
138
100
AcDbEntity
  8
0
  6
ByLayer
 62
  256
370
   70
100
AcDbPolyline
 90
    4
 70
    1
 43
0
 10
195.8400000000002
 20
173.7961497035253
 10
165.8400000000002
 20
173.7961497035253
 10
165.8400000000002
 20
183.7961497035253
 10
195.8400000000002
 20
183.7961497035253
  0
LINE
  5
139
100
AcDbEntity
  8
0
  6
DASHDOT2
 62
  256
370
   25
100
AcDbLine
 10
185.8400000000002
 20
233.7961497035253
 11
235.8400000000002
 21
233.7961497035253
  0
LWPOLYLINE
  5
13A
100
AcDbEntity
  8
0
  6
DASHED2
 62
  256
370
   70
100
AcDbPolyline
 90
    4
 70
    1
 43
0
 10
195.8400000000002
 20
223.7961497035253
 10
225.8400000000002
 20
223.7961497035253
 10
225.8400000000002
 20
243.7961497035253
 10
195.8400000000002
 20
243.7961497035253
  0
LWPOLYLINE
  5
13B
100
AcDbEntity
  8
0
  6
DASHED2
 62
  256
370
   70
100
AcDbPolyline
 90
    4
 70
    1
 43
0
 10
225.8400000000002
 20
173.7961497035253
 10
215.8400000000002
 20
173.7961497035253
 10
215.8400000000002
 20
213.7961497035253
 10
225.8400000000002
 20
213.7961497035253
  0
LINE
  5
13C
100
AcDbEntity
  8
0
  6
DASHED2
 62
  256
370
   70
100
AcDbLine
 10
165.8400000000002
 20
163.7961497035253
 11
225.8400000000002
 21
163.7961497035253
  0
DIMENSION
  5
13D
100
AcDbEntity
  8
0
  6
ByLayer
 62
  256
370
   -1
100
AcDbDimension
  2
*D12
 10
236.0355864067438
 20
153.7961497035253
 30
0
 11
233.9105864067438
 21
158.7961497035253
 31
0
 70
   33
 71
    5
  3
Standard
 53
0
210
0
220
0
230
1
100
AcDbAlignedDimension
 13
225.8400000000002
 23
163.7961497035253
 33
0
 14
225.8400000000002
 24
153.7961497035253
 34
0
  0
DIMENSION
  5
13E
100
AcDbEntity
  8
0
  6
ByLayer
 62
  256
370
   -1
100
AcDbDimension
  2
*D13
 10
236.0355864067438
 20
173.7961497035253
 30
0
 11
233.9105864067438
 21
193.7961497035253
 31
0
 70
   32
 71
    5
  3
Standard
 53
0
210
0
220
0
230
1
100
AcDbAlignedDimension
 13
225.8400000000002
 23
213.7961497035253
 33
0
 14
225.8400000000002
 24
173.7961497035253
 34
0
 50
90
100
AcDbRotatedDimension
  0
DIMENSION
  5
13F
100
AcDbEntity
  8
0
  6
ByLayer
 62
  256
370
   -1
100
AcDbDimension
  2
*D14
 10
235.7512176760522
 20
223.7961497035253
 30
0
 11
233.6262176760522
 21
233.7961497035253
 31
0
 70
   32
  1
%%C<>
 71
    5
  3
Standard
 53
0
210
0
220
0
230
1
100
AcDbAlignedDimension
 13
225.8400000000002
 23
243.7961497035253
 33
0
 14
225.8400000000002
 24
223.7961497035253
 34
0
 50
90
100
AcDbRotatedDimension
  0
DIMENSION
  5
140
100
AcDbEntity
  8
0
  6
ByLayer
 62
  256
370
   -1
100
AcDbDimension
  2
*D15
 10
247.4103356343997
 20
233.7961497035253
 30
0
 11
245.2853356343997
 21
248.7961497035253
 31
0
 70
   33
  1
R30
 71
    5
  3
Standard
 53
0
210
0
220
0
230
1
100
AcDbAlignedDimension
 13
225.8400000000002
 23
263.7961497035253
 33
0
 14
225.8400000000002
 24
233.7961497035253
 34
0
  0
DIMENSION
  5
141
100
AcDbEntity
  8
0
  6
ByLayer
 62
  256
370
   -1
100
AcDbDimension
  2
*D16
 10
251.1071291333876
 20
153.7961497035253
 30
0
 11
248.9821291333876
 21
208.7961497035253
 31
0
 70
   33
 71
    5
  3
Standard
 53
0
210
0
220
0
230
1
100
AcDbAlignedDimension
 13
225.8400000000002
 23
263.7961497035253
 33
0
 14
225.8400000000002
 24
153.7961497035253
 34
0
  0
MTEXT
  5
142
100
AcDbEntity
  8
0
  6
ByLayer
 62
  256
370
   -1
100
AcDbMText
 10
252.8730536585383
 20
45.59547317073201
 30
0
 40
2
 41
7.777777777777777
 71
    5
 72
    1
  1
Ласка\P
  7
cyrillic_ii
210
0
220
0
230
1
 50
0
 73
    2
 44
1
  0
ENDSEC
  0
SECTION
  2
OBJECTS
  0
DICTIONARY
  5
C
330
0
100
AcDbDictionary
281
    1
  3
ACAD_GROUP
350
D
  0
DICTIONARY
  5
D
330
C
100
AcDbDictionary
281
    1
  0
ENDSEC
  0
EOF
